<svg width="150" height="150" viewBox="0 0 150 150" fill="none" xmlns="http://www.w3.org/2000/svg">
<path d="M109.821 42.8571C92.0694 42.8571 77.6786 57.2479 77.6786 75C77.6786 92.7521 92.0694 107.143 109.821 107.143C127.574 107.143 141.964 92.7521 141.964 75C141.945 57.2558 127.566 42.8768 109.821 42.8571ZM109.821 53.5714C97.9863 53.5714 88.3929 63.1649 88.3929 75C88.3929 86.8352 97.9863 96.4286 109.821 96.4286V101.786C95.0278 101.786 83.0357 89.7936 83.0357 75C83.0357 60.2064 95.0278 48.2143 109.821 48.2143V53.5714Z" fill="url(#paint0_linear)"/>
<path d="M126.236 109.218C126.404 108.967 126.539 108.684 126.705 108.439C123.901 109.867 120.928 110.932 117.857 111.611V115.179C119.336 115.179 120.536 116.378 120.536 117.857V132.694L122.143 133.929L133.929 122.143L126.348 112.355C125.638 111.443 125.592 110.178 126.236 109.218Z" fill="url(#paint1_linear)"/>
<path d="M104.464 144.643C104.464 147.601 106.863 150 109.821 150C112.78 150 115.179 147.601 115.179 144.643V120.536H104.464V144.643Z" fill="url(#paint2_linear)"/>
<path d="M146.231 66.1848C147.685 71.9722 147.685 78.0278 146.231 83.8152L150 83.347V66.653L146.231 66.1848Z" fill="url(#paint3_linear)"/>
<path d="M53.5714 75C53.5662 81.3551 56.3847 87.3832 61.2645 91.4559C66.1429 95.5274 72.5791 97.2225 78.8308 96.0807C70.1516 83.3666 70.1516 66.6334 78.8308 53.9193C72.5791 52.7775 66.1429 54.4726 61.2645 58.544C56.3847 62.6168 53.5662 68.6449 53.5714 75Z" fill="url(#paint4_linear)"/>
<path d="M92.4107 41.8121C76.6323 33.5122 57.1917 37.4673 45.9111 51.2735C34.6305 65.0796 34.6305 84.9204 45.9111 98.7265C57.1917 112.533 76.6323 116.488 92.4107 108.188C88.7355 106.247 85.4056 103.714 82.5557 100.687C71.5916 103.949 59.7656 99.8866 53.1189 90.5757C46.4722 81.2648 46.4722 68.7613 53.1189 59.4504C59.7656 50.1395 71.5916 46.0785 82.5557 49.3391C85.403 46.3034 88.7329 43.7609 92.4107 41.8121V41.8121Z" fill="url(#paint5_linear)"/>
<path d="M109.821 112.5C108.916 112.5 108.032 112.428 107.143 112.364V115.179H112.5V112.364C111.611 112.428 110.726 112.5 109.821 112.5Z" fill="url(#paint6_linear)"/>
<path d="M75 117.857C51.331 117.857 32.1429 98.669 32.1429 75C32.1429 51.331 51.331 32.1429 75 32.1429C83.3771 32.1337 91.5697 34.603 98.5474 39.2382C107.874 36.2837 117.988 37.1168 126.705 41.561C126.539 41.306 126.404 41.0248 126.236 40.7815C125.597 39.8228 125.643 38.5646 126.348 37.6556L133.929 27.8569L122.143 16.0714L112.355 23.6546C111.443 24.3609 110.182 24.404 109.224 23.7619C102.51 19.2535 94.9637 16.1303 87.0274 14.5739C85.8909 14.3515 85.0263 13.4242 84.8838 12.2759L83.3496 0H66.6504L65.1215 12.2759C64.9789 13.4242 64.1144 14.3515 62.9791 14.5739C55.0415 16.1303 47.4963 19.2535 40.7815 23.7619C39.8228 24.404 38.562 24.3609 37.6504 23.6546L27.8569 16.0714L16.0714 27.8569L23.652 37.6452C24.357 38.5555 24.4014 39.815 23.7619 40.7737C19.2548 47.4884 16.1316 55.035 14.5739 62.97C14.3515 64.1052 13.4256 64.9697 12.2785 65.1136L0 66.6504V83.3496L12.2785 84.8785C13.4256 85.0224 14.3515 85.8869 14.5739 87.0209C16.1316 94.9572 19.2548 102.504 23.7619 109.218C24.4014 110.177 24.357 111.437 23.652 112.347L16.0714 122.143L27.8569 133.929L37.6452 126.345C38.5568 125.639 39.8176 125.596 40.7763 126.238C47.4897 130.746 55.0363 133.87 62.9726 135.426C64.1091 135.648 64.9737 136.576 65.1162 137.724L66.6504 150H83.3496L84.8759 137.724C85.0185 136.576 85.883 135.648 87.0183 135.426C91.1656 134.593 95.2175 133.335 99.1071 131.674V117.857C99.1071 116.378 100.306 115.179 101.786 115.179V111.611C100.69 111.37 99.6055 111.097 98.5474 110.762C91.5697 115.397 83.3771 117.866 75 117.857Z" fill="url(#paint7_linear)"/>
<defs>
<linearGradient id="paint0_linear" x1="109.821" y1="42.8571" x2="109.821" y2="107.143" gradientUnits="userSpaceOnUse">
<stop stop-color="#FFB150"/>
<stop offset="0.703125" stop-color="#FF9A1C"/>
<stop offset="1" stop-color="#F78900"/>
</linearGradient>
<linearGradient id="paint1_linear" x1="125.893" y1="108.439" x2="125.893" y2="133.929" gradientUnits="userSpaceOnUse">
<stop stop-color="#FFB150"/>
<stop offset="0.703125" stop-color="#FF9A1C"/>
<stop offset="1" stop-color="#F78900"/>
</linearGradient>
<linearGradient id="paint2_linear" x1="109.821" y1="120.536" x2="109.821" y2="150" gradientUnits="userSpaceOnUse">
<stop stop-color="#FFB150"/>
<stop offset="0.703125" stop-color="#FF9A1C"/>
<stop offset="1" stop-color="#F78900"/>
</linearGradient>
<linearGradient id="paint3_linear" x1="148.115" y1="66.1848" x2="148.115" y2="83.8152" gradientUnits="userSpaceOnUse">
<stop stop-color="#FFB150"/>
<stop offset="0.703125" stop-color="#FF9A1C"/>
<stop offset="1" stop-color="#F78900"/>
</linearGradient>
<linearGradient id="paint4_linear" x1="66.2011" y1="53.5708" x2="66.2011" y2="96.4292" gradientUnits="userSpaceOnUse">
<stop stop-color="#FFB150"/>
<stop offset="0.703125" stop-color="#FF9A1C"/>
<stop offset="1" stop-color="#F78900"/>
</linearGradient>
<linearGradient id="paint5_linear" x1="64.9307" y1="37.4978" x2="64.9307" y2="112.502" gradientUnits="userSpaceOnUse">
<stop stop-color="#FFB150"/>
<stop offset="0.703125" stop-color="#FF9A1C"/>
<stop offset="1" stop-color="#F78900"/>
</linearGradient>
<linearGradient id="paint6_linear" x1="109.821" y1="112.364" x2="109.821" y2="115.179" gradientUnits="userSpaceOnUse">
<stop stop-color="#FFB150"/>
<stop offset="0.703125" stop-color="#FF9A1C"/>
<stop offset="1" stop-color="#F78900"/>
</linearGradient>
<linearGradient id="paint7_linear" x1="66.9643" y1="0" x2="66.9643" y2="150" gradientUnits="userSpaceOnUse">
<stop stop-color="#FFB150"/>
<stop offset="0.703125" stop-color="#FF9A1C"/>
<stop offset="1" stop-color="#F78900"/>
</linearGradient>
</defs>
</svg>
