<svg xmlns="http://www.w3.org/2000/svg" width="250" height="250" viewBox="0 0 250 250">
  <g id="analyse-banner-icn" transform="translate(-5083 -2308)">
    <g id="insurance-banner-icn" transform="translate(-446 491)">
      <rect id="Rectangle_126" data-name="Rectangle 126" width="250" height="250" transform="translate(5529 1817)" fill="none"/>
    </g>
    <g id="configuration" transform="translate(5108 2333)">
      <circle id="Ellipse_11" data-name="Ellipse 11" cx="100" cy="100" r="100" transform="translate(0 0)" fill="#fff"/>
      <rect id="Rectangle_129" data-name="Rectangle 129" width="17.31" height="9.72" transform="translate(91.345 126.098)" fill="#646b79"/>
      <circle id="Ellipse_12" data-name="Ellipse 12" cx="60.852" cy="60.852" r="60.852" transform="translate(39.148 6.525)" fill="#414753"/>
      <circle id="Ellipse_13" data-name="Ellipse 13" cx="52.597" cy="52.597" r="52.597" transform="translate(47.403 14.78)" fill="#bdbdbe"/>
      <circle id="Ellipse_14" data-name="Ellipse 14" cx="46.604" cy="46.604" r="46.604" transform="translate(53.396 20.773)" fill="#fcfcfd"/>
      <g id="Group_41" data-name="Group 41" transform="translate(84.943 135.819)">
        <path id="Path_143" data-name="Path 143" d="M216.713,472.328l-.4,5.326a2.456,2.456,0,0,0,2.4,2.663h25.033a2.38,2.38,0,0,0,2.4-2.663l-.4-5.326Z" transform="translate(-216.303 -422.661)" fill="#4f5565"/>
        <path id="Path_144" data-name="Path 144" d="M248.314,348.119a2.449,2.449,0,0,0-2.4-2.264H227.675a2.362,2.362,0,0,0-2.4,2.264l-.133,1.731h23.3Z" transform="translate(-221.673 -345.855)" fill="#4f5565"/>
      </g>
      <path id="Path_145" data-name="Path 145" d="M220.275,356.026,217.346,401.7H246.64l-2.93-45.672Z" transform="translate(-131.993 -216.213)" fill="#fbd303"/>
      <path id="Path_146" data-name="Path 146" d="M229.7,100.51l-7.856-2.13a32.047,32.047,0,0,0-3.861-9.321L221.979,82a2.236,2.236,0,0,0-.266-2.4l-5.859-5.859a1.834,1.834,0,0,0-2.4-.266L206.4,77.474a33.646,33.646,0,0,0-9.321-3.861l-2.13-7.723a2,2,0,0,0-2-1.465H184.7a2.164,2.164,0,0,0-2,1.465l-2.13,7.856a32.048,32.048,0,0,0-9.321,3.861l-7.058-3.995a2.236,2.236,0,0,0-2.4.266l-5.859,5.859a1.834,1.834,0,0,0-.266,2.4l3.995,7.057a33.646,33.646,0,0,0-3.861,9.321l-7.856,2.13a2,2,0,0,0-1.465,2V110.9a2.164,2.164,0,0,0,1.465,2l7.856,2.13a32.048,32.048,0,0,0,3.861,9.321l-3.995,7.057a2.236,2.236,0,0,0,.266,2.4l5.859,5.859a1.834,1.834,0,0,0,2.4.266l7.057-3.995a33.646,33.646,0,0,0,9.321,3.861l2.13,7.856a2,2,0,0,0,2,1.465h8.256a2.164,2.164,0,0,0,2-1.465l2.13-7.856a32.048,32.048,0,0,0,9.321-3.861l7.057,3.995a2.236,2.236,0,0,0,2.4-.266l5.859-5.859a1.834,1.834,0,0,0,.266-2.4l-3.995-7.057a33.646,33.646,0,0,0,3.861-9.321l7.856-2.13a2,2,0,0,0,1.465-2v-8.389A2.163,2.163,0,0,0,229.7,100.51Zm-40.746,21.038A15.047,15.047,0,1,1,204,106.5,15.117,15.117,0,0,1,188.957,121.548Z" transform="translate(-88.957 -39.125)" fill="#6eb1e1"/>
    </g>
  </g>
</svg>
