<svg xmlns="http://www.w3.org/2000/svg" width="250" height="250" viewBox="0 0 250 250">
  <g id="baking-banner-icn" transform="translate(-3001 -1819)">
    <g id="baking-banner-icn-2" data-name="baking-banner-icn" transform="translate(3026 1830.9)">
      <rect id="Rectangle_112" data-name="Rectangle 112" width="12.987" height="94.156" transform="translate(21.429 84.032)" fill="#fff"/>
      <rect id="Rectangle_113" data-name="Rectangle 113" width="12.987" height="94.156" transform="translate(164.286 84.032)" fill="#dae6ea"/>
      <rect id="Rectangle_114" data-name="Rectangle 114" width="146.104" height="94.156" transform="translate(24.675 84.032)" fill="#9daeb2"/>
      <path id="Path_61" data-name="Path 61" d="M60.8,174.7H206.9v94.156" transform="translate(-36.125 -90.668)" fill="#9daeb2"/>
      <path id="Path_62" data-name="Path 62" d="M200,149.194a6.513,6.513,0,0,1-6.493,6.494H6.494A6.513,6.513,0,0,1,0,149.194H0A6.8,6.8,0,0,1,6.818,142.7H193.507A6.513,6.513,0,0,1,200,149.194Z" transform="translate(0 -71.655)" fill="#fff"/>
      <path id="Path_63" data-name="Path 63" d="M200,158.7h0a6.513,6.513,0,0,1-6.493,6.494H6.494A6.513,6.513,0,0,1,0,158.7H0" transform="translate(0 -81.162)" fill="#dae6ea"/>
      <path id="Path_64" data-name="Path 64" d="M208.878,413.194a6.513,6.513,0,0,1-6.493,6.493H43.293a6.513,6.513,0,0,1-6.494-6.493h0a6.513,6.513,0,0,1,6.494-6.493H202.384a6.513,6.513,0,0,1,6.493,6.493Z" transform="translate(-21.865 -228.512)" fill="#fff"/>
      <path id="Path_65" data-name="Path 65" d="M208.878,422.7h0a6.513,6.513,0,0,1-6.493,6.494H43.293A6.513,6.513,0,0,1,36.8,422.7h0" transform="translate(-21.865 -238.019)" fill="#dae6ea"/>
      <path id="Path_66" data-name="Path 66" d="M197.865,445.194a6.513,6.513,0,0,1-6.493,6.493H19.293a6.513,6.513,0,0,1-6.494-6.493h0a6.513,6.513,0,0,1,6.494-6.494H191.371a6.513,6.513,0,0,1,6.493,6.494Z" transform="translate(-7.605 -247.525)" fill="#fff"/>
      <path id="Path_67" data-name="Path 67" d="M197.865,454.7h0a6.135,6.135,0,0,1-6.493,6.493H19.293A6.135,6.135,0,0,1,12.8,454.7h0" transform="translate(-7.605 -257.032)" fill="#dae6ea"/>
      <path id="Path_68" data-name="Path 68" d="M202.769,71.045h0l-73.7-41.883a23.713,23.713,0,0,0-33.766,0L21.6,71.045H202.769Z" transform="translate(-12.834 0)" fill="#fff"/>
      <path id="Path_70" data-name="Path 70" d="M226.818,77.661V72.466A12.165,12.165,0,0,1,220,70.518l1.623-4.87a16.639,16.639,0,0,0,7.143,1.948c2.6,0,4.221-.974,4.221-2.6s-1.3-2.6-4.545-3.9C223.9,59.479,220,57.531,220,53.31c0-3.9,3.571-6.818,6.818-7.792V38.7h6.493v6.494a9.633,9.633,0,0,1,5.519,1.3l-1.623,4.87a16.165,16.165,0,0,0-6.169-1.623c-2.922,0-3.9,1.3-3.9,2.273,0,1.3,1.623,2.273,5.195,3.571,5.195,1.948,7.792,4.221,7.792,8.117s-3.9,7.143-7.143,7.792v6.169Z" transform="translate(-130.714 -9.863)" fill="#04c272"/>
      <rect id="Rectangle_115" data-name="Rectangle 115" width="16.234" height="81.169" transform="translate(34.416 90.525)" fill="#fff"/>
      <path id="Path_71" data-name="Path 71" d="M84.8,190.7h16.234v81.169" transform="translate(-50.384 -100.175)" fill="#dae6ea"/>
      <g id="Group_33" data-name="Group 33" transform="translate(31.169 90.525)">
        <path id="Path_72" data-name="Path 72" d="M99.527,384.323a1.534,1.534,0,0,1-1.623,1.623H78.423a1.534,1.534,0,0,1-1.623-1.623h0a1.534,1.534,0,0,1,1.623-1.623H97.9a1.534,1.534,0,0,1,1.623,1.623Z" transform="translate(-76.8 -304.778)" fill="#fff"/>
        <rect id="Rectangle_116" data-name="Rectangle 116" width="16.234" height="81.169" transform="translate(58.442)" fill="#fff"/>
      </g>
      <path id="Path_73" data-name="Path 73" d="M228.8,190.7h12.987v81.169" transform="translate(-135.943 -100.175)" fill="#dae6ea"/>
      <g id="Group_34" data-name="Group 34" transform="translate(85.714 90.525)">
        <path id="Path_74" data-name="Path 74" d="M235.226,384.323a1.818,1.818,0,0,1-1.948,1.623h-20.13a1.818,1.818,0,0,1-1.948-1.623h0a1.818,1.818,0,0,1,1.948-1.623h20.13a1.818,1.818,0,0,1,1.948,1.623Z" transform="translate(-211.2 -304.778)" fill="#fff"/>
        <rect id="Rectangle_117" data-name="Rectangle 117" width="16.234" height="81.169" transform="translate(59.091)" fill="#fff"/>
      </g>
      <path id="Path_75" data-name="Path 75" d="M356.8,190.7h16.234v81.169" transform="translate(-211.995 -100.175)" fill="#dae6ea"/>
      <path id="Path_76" data-name="Path 76" d="M371.527,384.323a1.534,1.534,0,0,1-1.623,1.623H350.423a1.534,1.534,0,0,1-1.623-1.623h0a1.534,1.534,0,0,1,1.623-1.623H369.9a1.534,1.534,0,0,1,1.623,1.623Z" transform="translate(-207.242 -214.253)" fill="#fff"/>
    </g>
    <rect id="Rectangle_121" data-name="Rectangle 121" width="250" height="250" transform="translate(3001 1819)" fill="none"/>
  </g>
</svg>
