<svg width="150" height="150" viewBox="0 0 150 150" fill="none" xmlns="http://www.w3.org/2000/svg">
<g clip-path="url(#clip0)">
<path d="M144.273 27.7436L52.4052 8.30176C48.5185 7.47946 44.666 9.98707 43.8437 13.8739L42.0983 25.0901L148.098 47.5214L149.844 36.3051C150.666 32.4198 148.16 28.5661 144.273 27.7436Z" fill="url(#paint0_linear)"/>
<path d="M105.64 49.9001C104.567 46.0358 100.529 43.7517 96.6658 44.8231L79.226 49.6645L38.1125 40.9635L33.5909 62.3276L5.33974 70.1688C1.47697 71.2404 -0.807117 75.2787 0.264213 79.1417L16.1854 136.514C17.2584 140.377 21.2969 142.662 25.1597 141.59L116.486 116.246C120.349 115.173 122.633 111.136 121.561 107.271L118.828 97.4222L129.071 99.5877C132.958 100.411 136.81 97.9038 137.633 94.017L144.113 63.395L107.219 55.5879L105.64 49.9001ZM116.187 79.0591L118.446 68.3845C118.785 66.7862 120.37 65.7553 121.968 66.0928L132.642 68.3529C134.242 68.6921 135.273 70.2752 134.935 71.875L132.677 82.5495C132.338 84.1478 130.753 85.1802 129.155 84.8412L118.48 82.5826C116.879 82.2422 115.848 80.6574 116.187 79.0591ZM6.92896 75.8941L32.2024 68.8828L91.8349 52.3344L98.2519 50.5515C98.369 50.5199 98.4859 50.505 98.6002 50.505C99.1149 50.505 99.7303 50.8427 99.9102 51.4895L100.664 54.2028L103.024 62.7087L9.10496 88.7716L5.99097 77.5539C5.79587 76.85 6.22528 76.0892 6.92896 75.8941ZM115.834 108.859C115.954 109.294 115.828 109.654 115.701 109.879C115.575 110.104 115.332 110.399 114.896 110.519L23.572 135.863C23.4565 135.894 23.3379 135.911 23.2237 135.911C22.709 135.911 22.0935 135.571 21.9136 134.925L12.6273 101.46L106.547 75.3958L112.275 96.0352L115.834 108.859Z" fill="url(#paint1_linear)"/>
<path d="M38.3284 111.149C37.8902 109.573 36.2453 108.643 34.6696 109.079L24.0041 112.04C22.4298 112.477 21.4979 114.123 21.9362 115.699L24.8955 126.363C25.3337 127.939 26.9786 128.869 28.5543 128.431L39.2199 125.472C40.7956 125.035 41.726 123.389 41.2892 121.813L38.3284 111.149Z" fill="url(#paint2_linear)"/>
</g>
<defs>
<linearGradient id="paint0_linear" x1="96.0491" y1="8.14558" x2="96.0491" y2="47.5214" gradientUnits="userSpaceOnUse">
<stop stop-color="#FFB150"/>
<stop offset="0.703125" stop-color="#FF9A1C"/>
<stop offset="1" stop-color="#F78900"/>
</linearGradient>
<linearGradient id="paint1_linear" x1="72.0563" y1="40.9635" x2="72.0563" y2="141.854" gradientUnits="userSpaceOnUse">
<stop stop-color="#FFB150"/>
<stop offset="0.703125" stop-color="#FF9A1C"/>
<stop offset="1" stop-color="#F78900"/>
</linearGradient>
<linearGradient id="paint2_linear" x1="31.6124" y1="108.972" x2="31.6124" y2="128.539" gradientUnits="userSpaceOnUse">
<stop stop-color="#FFB150"/>
<stop offset="0.703125" stop-color="#FF9A1C"/>
<stop offset="1" stop-color="#F78900"/>
</linearGradient>
<clipPath id="clip0">
<rect width="150" height="150" fill="white"/>
</clipPath>
</defs>
</svg>
