<svg width="150" height="150" viewBox="0 0 150 150" fill="none" xmlns="http://www.w3.org/2000/svg">
<path d="M66.0801 47.788C60.9031 40.41 53.9771 35 46.3501 35C37.7501 35 30.0501 41.816 24.7301 50.6C31.427 51.6406 37.8354 54.0582 43.5511 57.7C50.2752 52.8402 57.9545 49.4634 66.0811 47.793L66.0801 47.788Z" fill="#FFEC66"/>
<path d="M36.6941 102.102C36.7641 102.102 36.7641 102.102 36.8341 102.173L36.7641 102.102H36.6941Z" fill="#FFF16E"/>
<path d="M91.2681 52.776C85.7411 46.804 76.0151 45.82 66.0801 47.857C71.8171 56.008 75.3861 66.617 75.3861 74.979C75.3256 82.6582 72.2183 89.9991 66.7473 95.3882C61.2763 100.777 53.8893 103.773 46.2101 103.718C42.976 103.713 39.7634 103.191 36.6941 102.172C36.9313 102.47 37.1885 102.752 37.4641 103.016C48.4491 114.891 67.4791 115.102 79.8641 103.438C92.3941 91.773 102.253 64.582 91.2681 52.776Z" fill="#FFB14A"/>
<path d="M75.4561 74.91C75.4561 66.549 71.8871 55.941 66.1501 47.788C58.0109 49.4477 50.3112 52.7991 43.5501 57.625C44.488 58.2054 45.3767 58.862 46.2071 59.588C57.0521 68.511 59.2231 83.9 50.9641 94.018C47.4178 98.3919 42.3418 101.255 36.7641 102.027L36.8341 102.098C39.9021 103.123 43.1155 103.645 46.3501 103.644C50.1502 103.677 53.9194 102.959 57.4412 101.531C60.9631 100.103 64.1682 97.9937 66.8727 95.3239C69.5771 92.654 71.7275 89.4763 73.2005 85.9731C74.6735 82.4699 75.44 78.7102 75.4561 74.91Z" fill="#FFF16E"/>
<path d="M75.4561 74.91C75.4561 66.549 71.8871 55.941 66.1501 47.788C58.0109 49.4477 50.3112 52.7991 43.5501 57.625C44.488 58.2054 45.3767 58.862 46.2071 59.588C57.0521 68.511 59.2231 83.9 50.9641 94.018C47.4178 98.3919 42.3418 101.255 36.7641 102.027L36.8341 102.098C39.9021 103.123 43.1155 103.645 46.3501 103.644C50.1502 103.677 53.9194 102.959 57.4412 101.531C60.9631 100.103 64.1682 97.9937 66.8727 95.3239C69.5771 92.654 71.7275 89.4763 73.2005 85.9731C74.6735 82.4699 75.44 78.7102 75.4561 74.91Z" fill="#F99635"/>
<path d="M17.1731 74.911C17.1731 67.463 20.0421 58.263 24.7291 50.599C16.4031 49.264 8.28206 50.459 4.08906 55.658C-4.16594 65.775 5.55706 87.411 16.4041 96.339C19.1935 98.6678 22.4414 100.384 25.9371 101.377C29.4327 102.369 33.098 102.616 36.6951 102.1C31.0208 100.156 26.0924 96.4939 22.5941 91.6216C19.0958 86.7494 17.2011 80.909 17.1731 74.911Z" fill="#C0E276"/>
<path d="M40.1231 60.435C41.1721 59.451 42.2921 58.535 43.4811 57.624C37.7654 53.9822 31.357 51.5646 24.6601 50.524C19.9731 58.187 17.1041 67.391 17.1041 74.84C17.1185 80.841 19.0077 86.6875 22.5078 91.5622C26.0078 96.4369 30.9435 100.096 36.6251 102.028H36.6951C26.6201 90.157 28.0191 71.748 40.1231 60.435Z" fill="#FFF16E"/>
<path d="M40.1231 60.435C41.1721 59.451 42.2921 58.535 43.4811 57.624C37.7654 53.9822 31.357 51.5646 24.6601 50.524C19.9731 58.187 17.1041 67.391 17.1041 74.84C17.1185 80.841 19.0077 86.6875 22.5078 91.5622C26.0078 96.4369 30.9435 100.096 36.6251 102.028H36.6951C26.6201 90.157 28.0191 71.748 40.1231 60.435Z" fill="#ABCC52"/>
<path d="M36.7631 102.032C42.3307 101.231 47.3966 98.3747 50.9631 94.025C59.2191 83.908 57.0501 68.449 46.2031 59.596C45.3641 58.89 44.4531 58.261 43.5441 57.628C42.3653 58.4917 41.2437 59.4306 40.1861 60.439C28.0181 71.751 26.6191 90.157 36.7631 102.032Z" fill="#FFF16E"/>
<path d="M36.7631 102.032C42.3307 101.231 47.3966 98.3747 50.9631 94.025C59.2191 83.908 57.0501 68.449 46.2031 59.596C45.3641 58.89 44.4531 58.261 43.5441 57.628C42.3653 58.4917 41.2437 59.4306 40.1861 60.439C28.0181 71.751 26.6191 90.157 36.7631 102.032Z" fill="#FFA95C"/>
<path d="M36.7631 102.032C42.3307 101.231 47.3966 98.3747 50.9631 94.025C59.2191 83.908 57.0501 68.449 46.2031 59.596C45.3641 58.89 44.4531 58.261 43.5441 57.628C42.3653 58.4917 41.2437 59.4306 40.1861 60.439C28.0181 71.751 26.6191 90.157 36.7631 102.032Z" fill="#9CB23F"/>
<path d="M68.3741 95.145C65.1154 95.145 62.1701 94.4243 59.5381 92.983C56.9374 91.5416 54.8851 89.552 53.3811 87.014C51.9084 84.4446 51.1721 81.5776 51.1721 78.413C51.1721 75.2483 51.9084 72.397 53.3811 69.859C54.8851 67.2896 56.9531 65.2843 59.5851 63.843C62.2171 62.4016 65.1624 61.681 68.4211 61.681C70.8651 61.681 73.1211 62.0883 75.1891 62.903C77.2571 63.7176 79.0118 64.9083 80.4531 66.475L78.2441 68.684C75.6748 66.0833 72.4318 64.783 68.5151 64.783C65.9144 64.783 63.5488 65.3783 61.4181 66.569C59.2874 67.7596 57.6111 69.389 56.3891 71.457C55.1984 73.525 54.6031 75.8436 54.6031 78.413C54.6031 80.9823 55.1984 83.301 56.3891 85.369C57.6111 87.437 59.2874 89.0663 61.4181 90.257C63.5488 91.4476 65.9144 92.043 68.5151 92.043C72.4631 92.043 75.7061 90.727 78.2441 88.095L80.4531 90.304C79.0118 91.8706 77.2414 93.077 75.1421 93.923C73.0741 94.7376 70.8181 95.145 68.3741 95.145ZM95.4432 69.953C98.6705 69.953 101.146 70.7676 102.869 72.397C104.592 73.995 105.454 76.3763 105.454 79.541V94.863H102.258V91.009C101.506 92.2936 100.394 93.2963 98.9212 94.017C97.4798 94.7376 95.7565 95.098 93.7512 95.098C90.9938 95.098 88.8005 94.44 87.1712 93.124C85.5418 91.808 84.7272 90.069 84.7272 87.907C84.7272 85.8076 85.4792 84.1156 86.9832 82.831C88.5185 81.5463 90.9468 80.904 94.2682 80.904H102.117V79.4C102.117 77.2693 101.522 75.6556 100.331 74.559C99.1405 73.431 97.4015 72.867 95.1142 72.867C93.5475 72.867 92.0435 73.1333 90.6022 73.666C89.1608 74.1673 87.9232 74.8723 86.8892 75.781L85.3852 73.29C86.6385 72.2246 88.1425 71.41 89.8972 70.846C91.6518 70.2506 93.5005 69.953 95.4432 69.953ZM94.2682 92.466C96.1482 92.466 97.7618 92.043 99.1092 91.197C100.456 90.3196 101.459 89.0663 102.117 87.437V83.395H94.3622C90.1322 83.395 88.0172 84.8676 88.0172 87.813C88.0172 89.2543 88.5655 90.398 89.6622 91.244C90.7588 92.0586 92.2942 92.466 94.2682 92.466ZM114.518 59.989H117.855V94.863H114.518V59.989ZM127.14 59.989H130.477V94.863H127.14V59.989Z" fill="white"/>
<path d="M107.151 104.048H108.151V111.048H107.151V104.048ZM112.937 105.698C113.61 105.698 114.143 105.895 114.537 106.288C114.937 106.675 115.137 107.245 115.137 107.998V111.048H114.177V108.108C114.177 107.595 114.053 107.208 113.807 106.948C113.56 106.688 113.207 106.558 112.747 106.558C112.227 106.558 111.817 106.711 111.517 107.018C111.217 107.318 111.067 107.751 111.067 108.318V111.048H110.107V105.748H111.027V106.548C111.22 106.275 111.48 106.065 111.807 105.918C112.14 105.771 112.517 105.698 112.937 105.698ZM119.893 110.738C119.753 110.858 119.58 110.951 119.373 111.018C119.167 111.078 118.953 111.108 118.733 111.108C118.2 111.108 117.787 110.965 117.493 110.678C117.2 110.391 117.053 109.981 117.053 109.448V106.538H116.153V105.748H117.053V104.588H118.013V105.748H119.533V106.538H118.013V109.408C118.013 109.695 118.083 109.915 118.223 110.068C118.37 110.221 118.577 110.298 118.843 110.298C119.137 110.298 119.387 110.215 119.593 110.048L119.893 110.738ZM125.668 108.428C125.668 108.501 125.662 108.598 125.648 108.718H121.348C121.408 109.185 121.612 109.561 121.958 109.848C122.312 110.128 122.748 110.268 123.268 110.268C123.902 110.268 124.412 110.055 124.798 109.628L125.328 110.248C125.088 110.528 124.788 110.741 124.428 110.888C124.075 111.035 123.678 111.108 123.238 111.108C122.678 111.108 122.182 110.995 121.748 110.768C121.315 110.535 120.978 110.211 120.738 109.798C120.505 109.385 120.388 108.918 120.388 108.398C120.388 107.885 120.502 107.421 120.728 107.008C120.962 106.595 121.278 106.275 121.678 106.048C122.085 105.815 122.542 105.698 123.048 105.698C123.555 105.698 124.005 105.815 124.398 106.048C124.798 106.275 125.108 106.595 125.328 107.008C125.555 107.421 125.668 107.895 125.668 108.428ZM123.048 106.508C122.588 106.508 122.202 106.648 121.888 106.928C121.582 107.208 121.402 107.575 121.348 108.028H124.748C124.695 107.581 124.512 107.218 124.198 106.938C123.892 106.651 123.508 106.508 123.048 106.508ZM132.071 105.748V110.328C132.071 111.255 131.841 111.938 131.381 112.378C130.921 112.825 130.235 113.048 129.321 113.048C128.821 113.048 128.345 112.978 127.891 112.838C127.438 112.705 127.071 112.511 126.791 112.258L127.251 111.518C127.498 111.731 127.801 111.898 128.161 112.018C128.528 112.145 128.905 112.208 129.291 112.208C129.911 112.208 130.368 112.061 130.661 111.768C130.961 111.475 131.111 111.028 131.111 110.428V110.008C130.885 110.281 130.605 110.488 130.271 110.628C129.945 110.761 129.588 110.828 129.201 110.828C128.695 110.828 128.235 110.721 127.821 110.508C127.415 110.288 127.095 109.985 126.861 109.598C126.628 109.205 126.511 108.758 126.511 108.258C126.511 107.758 126.628 107.315 126.861 106.928C127.095 106.535 127.415 106.231 127.821 106.018C128.235 105.805 128.695 105.698 129.201 105.698C129.601 105.698 129.971 105.771 130.311 105.918C130.658 106.065 130.941 106.281 131.161 106.568V105.748H132.071ZM129.311 109.988C129.658 109.988 129.968 109.915 130.241 109.768C130.521 109.621 130.738 109.418 130.891 109.158C131.051 108.891 131.131 108.591 131.131 108.258C131.131 107.745 130.961 107.331 130.621 107.018C130.281 106.698 129.845 106.538 129.311 106.538C128.771 106.538 128.331 106.698 127.991 107.018C127.651 107.331 127.481 107.745 127.481 108.258C127.481 108.591 127.558 108.891 127.711 109.158C127.871 109.418 128.088 109.621 128.361 109.768C128.641 109.915 128.958 109.988 129.311 109.988ZM134.826 106.638C134.992 106.331 135.239 106.098 135.566 105.938C135.892 105.778 136.289 105.698 136.756 105.698V106.628C136.702 106.621 136.629 106.618 136.536 106.618C136.016 106.618 135.606 106.775 135.306 107.088C135.012 107.395 134.866 107.835 134.866 108.408V111.048H133.906V105.748H134.826V106.638ZM139.859 105.698C140.592 105.698 141.152 105.878 141.539 106.238C141.932 106.598 142.129 107.135 142.129 107.848V111.048H141.219V110.348C141.059 110.595 140.829 110.785 140.529 110.918C140.236 111.045 139.886 111.108 139.479 111.108C138.886 111.108 138.409 110.965 138.049 110.678C137.696 110.391 137.519 110.015 137.519 109.548C137.519 109.081 137.689 108.708 138.029 108.428C138.369 108.141 138.909 107.998 139.649 107.998H141.169V107.808C141.169 107.395 141.049 107.078 140.809 106.858C140.569 106.638 140.216 106.528 139.749 106.528C139.436 106.528 139.129 106.581 138.829 106.688C138.529 106.788 138.276 106.925 138.069 107.098L137.669 106.378C137.942 106.158 138.269 105.991 138.649 105.878C139.029 105.758 139.432 105.698 139.859 105.698ZM139.639 110.368C140.006 110.368 140.322 110.288 140.589 110.128C140.856 109.961 141.049 109.728 141.169 109.428V108.688H139.689C138.876 108.688 138.469 108.961 138.469 109.508C138.469 109.775 138.572 109.985 138.779 110.138C138.986 110.291 139.272 110.368 139.639 110.368Z" fill="white"/>
</svg>
