<svg xmlns="http://www.w3.org/2000/svg" width="70" height="70" viewBox="0 0 70 70">
  <g id="collect_payment" transform="translate(-1653 2253)">
    <g id="other_erp_system" transform="translate(375 1196)">
      <rect id="Rectangle_950" data-name="Rectangle 950" width="70" height="70" transform="translate(1278 -3449)" fill="none"/>
    </g>
    <g id="receipt" transform="translate(1658 -2248.293)">
      <path id="Path_27089" data-name="Path 27089" d="M60,4.293a4,4,0,0,0-4-4H4A3.992,3.992,0,0,0,3,8.151V56.707l3-3,6,6,6-6,6,6,6-6,6,6,6-6,6,6,6-6,3,3V8.151A4,4,0,0,0,60,4.293ZM55,51.879l-1-1-6,6-6-6-6,6-6-6-6,6-6-6-6,6-6-6-1,1V5.293H55V51.879ZM57,6.024V3.293H3V6.024A2,2,0,0,1,4,2.293H56a2,2,0,0,1,1,3.731Z" fill="#08B3EC"/>
      <path id="Path_27090" data-name="Path 27090" d="M44,40.293H29a1,1,0,1,0,0,2H44a1,1,0,0,0,0-2Z" fill="#212121"/>
      <path id="Path_27091" data-name="Path 27091" d="M48.29,40.583a1.029,1.029,0,0,0-.29.71,1,1,0,1,0,2,0,1.029,1.029,0,0,0-.29-.71A1.047,1.047,0,0,0,48.29,40.583Z" fill="#212121"/>
      <path id="Path_27092" data-name="Path 27092" d="M49,26.293H34a1,1,0,0,0,0,2H49a1,1,0,0,0,0-2Z" fill="#212121"/>
      <path id="Path_27093" data-name="Path 27093" d="M49,33.293H39a1,1,0,0,0,0,2H49a1,1,0,0,0,0-2Z" fill="#212121"/>
      <path id="Path_27094" data-name="Path 27094" d="M28,34.293a1,1,0,0,0,1,1h2a1,1,0,0,0,0-2H29A1,1,0,0,0,28,34.293Z" fill="#212121"/>
      <path id="Path_27095" data-name="Path 27095" d="M45,20.293a1,1,0,0,0-1-1H29a1,1,0,0,0,0,2H44A1,1,0,0,0,45,20.293Z" fill="#212121"/>
      <path id="Path_27096" data-name="Path 27096" d="M48.29,19.583a1.029,1.029,0,0,0-.29.71.99.99,0,0,0,1,1,1.033,1.033,0,0,0,.71-.29,1,1,0,1,0-1.42-1.42Z" fill="#212121"/>
      <path id="Path_27097" data-name="Path 27097" d="M30.71,28a1.014,1.014,0,0,0,0-1.42,1.047,1.047,0,0,0-1.42,0,1.014,1.014,0,0,0,0,1.42,1.014,1.014,0,0,0,1.42,0Z" fill="#212121"/>
      <path id="Path_27098" data-name="Path 27098" d="M35.71,35a1.033,1.033,0,0,0,.29-.71,1.013,1.013,0,0,0-.29-.71,1,1,0,1,0,0,1.42Z" fill="#212121"/>
      <path id="Path_27099" data-name="Path 27099" d="M17,21.394v-1.1a1,1,0,1,0-2,0v1.1a4.985,4.985,0,0,0-2.818,1.668,3.438,3.438,0,0,0-.794,2.6,3.649,3.649,0,0,0,1.383,2.491L15,29.893v5.438a3,3,0,0,1-2-2.816,1,1,0,0,0-2,0,5.009,5.009,0,0,0,4,4.9v.878a1,1,0,0,0,2,0V37.41a4.991,4.991,0,0,0,2.819-1.668,3.444,3.444,0,0,0,.793-2.6,3.646,3.646,0,0,0-1.383-2.488L17,28.916V23.478a3,3,0,0,1,2,2.816,1,1,0,0,0,2,0A5.01,5.01,0,0,0,17,21.394Zm1,10.834a1.642,1.642,0,0,1,.622,1.118,1.457,1.457,0,0,1-.331,1.1A2.988,2.988,0,0,1,17,35.326V31.448Zm-4-5.647a1.642,1.642,0,0,1-.622-1.12,1.461,1.461,0,0,1,.331-1.1A2.988,2.988,0,0,1,15,23.482v3.877Z" fill="#212121"/>
      <circle id="Ellipse_272" data-name="Ellipse 272" cx="1" cy="1" r="1" transform="translate(39 10.293)" fill="#08B3EC"/>
      <circle id="Ellipse_273" data-name="Ellipse 273" cx="1" cy="1" r="1" transform="translate(35 10.293)" fill="#08B3EC"/>
      <circle id="Ellipse_274" data-name="Ellipse 274" cx="1" cy="1" r="1" transform="translate(43 10.293)" fill="#08B3EC"/>
      <circle id="Ellipse_275" data-name="Ellipse 275" cx="1" cy="1" r="1" transform="translate(31 10.293)" fill="#08B3EC"/>
      <circle id="Ellipse_276" data-name="Ellipse 276" cx="1" cy="1" r="1" transform="translate(47 10.293)" fill="#08B3EC"/>
      <circle id="Ellipse_277" data-name="Ellipse 277" cx="1" cy="1" r="1" transform="translate(19 10.293)" fill="#08B3EC"/>
      <circle id="Ellipse_278" data-name="Ellipse 278" cx="1" cy="1" r="1" transform="translate(23 10.293)" fill="#08B3EC"/>
      <circle id="Ellipse_279" data-name="Ellipse 279" cx="1" cy="1" r="1" transform="translate(27 10.293)" fill="#08B3EC"/>
      <circle id="Ellipse_280" data-name="Ellipse 280" cx="1" cy="1" r="1" transform="translate(51 10.293)" fill="#08B3EC"/>
      <circle id="Ellipse_281" data-name="Ellipse 281" cx="1" cy="1" r="1" transform="translate(15 10.293)" fill="#08B3EC"/>
      <circle id="Ellipse_282" data-name="Ellipse 282" cx="1" cy="1" r="1" transform="translate(11 10.293)" fill="#08B3EC"/>
      <circle id="Ellipse_283" data-name="Ellipse 283" cx="1" cy="1" r="1" transform="translate(7 10.293)" fill="#08B3EC"/>
    </g>
  </g>
</svg>
