<svg xmlns="http://www.w3.org/2000/svg" width="70" height="70" viewBox="0 0 70 70">
  <g id="contact_customer" transform="translate(-1556 2253)">
    <g id="other_erp_system" transform="translate(278 1196)">
      <rect id="Rectangle_950" data-name="Rectangle 950" width="70" height="70" transform="translate(1278 -3449)" fill="none"/>
    </g>
    <g id="Group_1468" data-name="Group 1468" transform="translate(0 -4)">
      <path id="paper-plane" d="M60.046,11.2c0-.024.011-.048.013-.072a1.054,1.054,0,0,0-.01-.224c0-.019,0-.037,0-.056a1,1,0,0,0-.1-.289c-.008-.016-.019-.031-.028-.047s0-.005,0-.008,0,0-.005-.006-.013-.023-.02-.033a.987.987,0,0,0-.221-.23c-.019-.014-.041-.022-.061-.035a.959.959,0,0,0-.236-.116.862.862,0,0,0-.112-.025.966.966,0,0,0-.222-.02.937.937,0,0,0-.118.009c-.026,0-.051,0-.077.006L.8,22.046A1,1,0,0,0,.533,23.91l16.632,8.773L20.082,48.87c0,.012,0,.025,0,.037a.94.94,0,0,0,0,.237.922.922,0,0,0,.02.117.965.965,0,0,0,.11.268c.01.016.01.035.021.051a.074.074,0,0,0,.012.013c.013.019.031.034.046.053a1.022,1.022,0,0,0,.152.156c.009.007.015.018.025.025s.032.014.047.024a1.018,1.018,0,0,0,.191.1c.027.01.052.022.08.03a1,1,0,0,0,.277.044h0l.012,0,.051,0a.993.993,0,0,0,.712-.315l11.079-7.386,11.6,7.54A1,1,0,0,0,46,49.369L60,11.38a.916.916,0,0,0,.033-.1c0-.015.005-.03.008-.044S60.044,11.208,60.046,11.2ZM48.464,17.579,24.471,35.22a.973.973,0,0,0-.1.1.412.412,0,0,0-.037.035c-.021.023-.04.046-.059.071s-.032.049-.048.074a1.023,1.023,0,0,0-.092.188c0,.013-.013.023-.017.036s0,.006-.006.01l-2.75,8.937L19.179,32.579ZM22.908,46.594l2.726-9,4.244,2.759,1.214.789-4.124,2.749ZM52.044,13.5,18.071,30.9,3.931,23.441ZM44.559,47.5l-15.4-10.012-2.333-1.517L56.975,13.8Z" transform="translate(1561 -2244.035)" fill="#f6961e"/>
      <path id="Path_27106" data-name="Path 27106" d="M1585.417-2208.25l20,12.756" transform="translate(0.667 0.425)" fill="none" stroke="#212121" stroke-linecap="round" stroke-width="2"/>
    </g>
  </g>
</svg>
