<svg width="150" height="150" viewBox="0 0 150 150" fill="none" xmlns="http://www.w3.org/2000/svg">
<path d="M89.8299 58.554H67.1297C62.8963 58.5573 59.4662 61.9874 59.4607 66.2208V132.517C59.4662 136.749 62.8963 140.179 67.1297 140.183H68.1927C72.4272 140.179 75.8585 136.749 75.8629 132.517V90.0487C75.8705 83.1107 81.4924 77.4899 88.4283 77.4822H132.698C132.484 73.4066 129.12 70.2099 125.039 70.2055H106.052C104.654 70.2044 103.32 69.6148 102.378 68.5847L95.4891 61.0461C94.0349 59.4592 91.9812 58.5562 89.8299 58.554V58.554Z" fill="url(#paint0_linear)"/>
<path d="M75.6108 20.7765H56.6235C55.2262 20.7754 53.8936 20.187 52.9489 19.1568L46.058 11.6193C44.6059 10.0303 42.5512 9.12397 40.3977 9.12287H17.7019C13.4685 9.12725 10.0373 12.5585 10.0329 16.7919V83.0855C10.0373 87.3189 13.4685 90.7501 17.7019 90.7556H18.7671C22.9994 90.7501 26.4285 87.3189 26.4328 83.0855V40.6187C26.4427 33.6817 32.0646 28.062 39.0016 28.0543H83.27C83.0563 23.9776 79.6919 20.7809 75.6108 20.7765V20.7765Z" fill="url(#paint1_linear)"/>
<path d="M88.0185 32.9541H39.0016C34.7692 32.9573 31.3391 36.3864 31.3314 40.6187V83.0855C31.3336 85.8613 30.412 88.5594 28.7101 90.7556H54.5621V66.2208C54.5709 59.2828 60.1928 53.662 67.1297 53.6554H89.8289C91.8694 53.6576 93.8793 54.1573 95.6853 55.1085V40.6187C95.6776 36.3875 92.2497 32.9595 88.0185 32.9541V32.9541Z" fill="url(#paint2_linear)"/>
<path d="M137.446 82.3808H88.4305C84.1982 82.3863 80.768 85.8164 80.7626 90.0487V132.517C80.7626 132.718 80.7571 132.915 80.7472 133.114C80.745 133.179 80.7395 133.241 80.7363 133.305C80.7275 133.439 80.7176 133.575 80.7056 133.709C80.6979 133.781 80.6902 133.852 80.6826 133.925C80.6683 134.052 80.6519 134.178 80.6343 134.305C80.6234 134.374 80.6135 134.444 80.6026 134.514C80.5806 134.649 80.5565 134.783 80.5335 134.915C80.5204 134.974 80.5116 135.031 80.4984 135.089C80.4195 135.468 80.3242 135.842 80.2102 136.208C80.1938 136.262 80.1763 136.317 80.1587 136.372C80.116 136.5 80.0732 136.627 80.0283 136.754C80.0053 136.816 79.9823 136.879 79.9571 136.941C79.9121 137.061 79.8661 137.179 79.8179 137.297C79.7938 137.357 79.7686 137.417 79.7434 137.478C79.6886 137.604 79.6305 137.728 79.5735 137.852C79.5505 137.899 79.5297 137.948 79.5067 137.995C79.3401 138.336 79.1593 138.668 78.9642 138.991C78.9368 139.039 78.9061 139.084 78.8776 139.131C78.8075 139.245 78.7341 139.358 78.6606 139.471C78.6245 139.524 78.5905 139.574 78.5521 139.629C78.4798 139.734 78.4064 139.837 78.3308 139.94C78.2924 139.992 78.2552 140.042 78.2168 140.092C78.1938 140.124 78.1719 140.156 78.1478 140.186H137.446C141.679 140.181 145.109 136.752 145.114 132.52V90.0487C145.109 85.8164 141.679 82.3863 137.446 82.3808V82.3808Z" fill="url(#paint3_linear)"/>
<path d="M39.8279 126.524L33.395 133.145C32.4515 134.114 32.4734 135.665 33.4443 136.609C34.4131 137.551 35.9649 137.529 36.9084 136.559L47.1879 125.982C48.1095 125.034 48.1117 123.526 47.1945 122.575L36.915 111.906C35.9747 110.946 34.4339 110.922 33.4652 111.856C32.4953 112.79 32.4613 114.33 33.3874 115.307L39.4772 121.626H25.6175C21.3041 121.622 17.1693 119.904 14.1249 116.848C11.0805 113.792 9.37534 109.651 9.38849 105.337C9.38849 104.689 9.12877 104.068 8.66849 103.61C8.20932 103.154 7.58685 102.898 6.93809 102.902C5.58357 102.909 4.48878 104.009 4.48878 105.365C4.48439 110.977 6.71124 116.36 10.6816 120.33C14.6499 124.299 20.0329 126.526 25.646 126.524H39.8279Z" fill="url(#paint4_linear)"/>
<defs>
<linearGradient id="paint0_linear" x1="96.0793" y1="58.554" x2="96.0793" y2="140.183" gradientUnits="userSpaceOnUse">
<stop stop-color="#FFB150"/>
<stop offset="0.703125" stop-color="#FF9A1C"/>
<stop offset="1" stop-color="#F78900"/>
</linearGradient>
<linearGradient id="paint1_linear" x1="46.6514" y1="9.12287" x2="46.6514" y2="90.7556" gradientUnits="userSpaceOnUse">
<stop stop-color="#FFB150"/>
<stop offset="0.703125" stop-color="#FF9A1C"/>
<stop offset="1" stop-color="#F78900"/>
</linearGradient>
<linearGradient id="paint2_linear" x1="62.1977" y1="32.9541" x2="62.1977" y2="90.7556" gradientUnits="userSpaceOnUse">
<stop stop-color="#FFB150"/>
<stop offset="0.703125" stop-color="#FF9A1C"/>
<stop offset="1" stop-color="#F78900"/>
</linearGradient>
<linearGradient id="paint3_linear" x1="111.631" y1="82.3808" x2="111.631" y2="140.186" gradientUnits="userSpaceOnUse">
<stop stop-color="#FFB150"/>
<stop offset="0.703125" stop-color="#FF9A1C"/>
<stop offset="1" stop-color="#F78900"/>
</linearGradient>
<linearGradient id="paint4_linear" x1="26.1848" y1="102.902" x2="26.1848" y2="137.301" gradientUnits="userSpaceOnUse">
<stop stop-color="#FFB150"/>
<stop offset="0.703125" stop-color="#FF9A1C"/>
<stop offset="1" stop-color="#F78900"/>
</linearGradient>
</defs>
</svg>
