<svg xmlns="http://www.w3.org/2000/svg" width="250" height="250" viewBox="0 0 250 250">
  <g id="data-banner-icn" transform="translate(-5716 -2475)">
    <g id="insurance-banner-icn" transform="translate(187 658)">
      <rect id="Rectangle_126" data-name="Rectangle 126" width="250" height="250" transform="translate(5529 1817)" fill="none"/>
    </g>
    <g id="data-transfer" transform="translate(5742.5 2499)">
      <path id="Path_147" data-name="Path 147" d="M342.3,103.2h51.466a6.521,6.521,0,0,0,6.52-6.522V9.915a6.52,6.52,0,0,0-6.52-6.52H342.3a6.52,6.52,0,0,0-6.52,6.52v86.76A6.521,6.521,0,0,0,342.3,103.2Zm0,0" transform="translate(-204.31 -2.069)" fill="#2b608e"/>
      <path id="Path_148" data-name="Path 148" d="M342.3,3.395a6.52,6.52,0,0,0-6.52,6.522V96.675a6.52,6.52,0,0,0,6.52,6.522H368.03V3.395Zm0,0" transform="translate(-204.31 -2.068)" fill="#2b76ae"/>
      <path id="Path_149" data-name="Path 149" d="M401.389,200.664H373.476a5.859,5.859,0,0,1,0-11.719h27.913a5.859,5.859,0,0,1,0,11.719Zm0,0" transform="translate(-223.712 -115.138)" fill="#44b5e1"/>
      <path id="Path_150" data-name="Path 150" d="M401.389,127.86H373.476a5.859,5.859,0,0,1,0-11.719h27.913a5.859,5.859,0,0,1,0,11.719Zm0,0" transform="translate(-223.712 -70.773)" fill="#44b5e1"/>
      <path id="Path_151" data-name="Path 151" d="M401.389,55.051H373.476a5.859,5.859,0,0,1,0-11.719h27.913a5.859,5.859,0,0,1,0,11.719Zm0,0" transform="translate(-223.712 -26.405)" fill="#cf4c88"/>
      <path id="Path_152" data-name="Path 152" d="M218.658,352.791l15.1-15.1a5.859,5.859,0,1,1,8.286,8.287l-3.21,3.21a69.462,69.462,0,0,0,51.828-52.66,5.86,5.86,0,1,1,11.449,2.506,81.188,81.188,0,0,1-66.229,62.686l6.163,6.163a5.859,5.859,0,1,1-8.286,8.287l-15.1-15.1a6.726,6.726,0,0,1,0-8.289Zm0,0" transform="translate(-132.069 -177.891)" fill="#fff"/>
      <path id="Path_153" data-name="Path 153" d="M152.843,25.1l-15.1,15.1a5.86,5.86,0,0,1-8.287-8.287l3.229-3.229a69.449,69.449,0,0,0-51.2,50,5.859,5.859,0,0,1-11.339-2.96,81.183,81.183,0,0,1,65.468-59.567L129.46,10a5.859,5.859,0,1,1,8.287-8.286l15.1,15.1a6.118,6.118,0,0,1,0,8.289Zm0,0" transform="translate(-42.324)" fill="#fff"/>
      <path id="Path_154" data-name="Path 154" d="M367.617,194.8a5.86,5.86,0,0,0,5.859,5.859h13.956V188.945H373.476A5.861,5.861,0,0,0,367.617,194.8Zm0,0" transform="translate(-223.712 -115.138)" fill="#50cbd8"/>
      <path id="Path_155" data-name="Path 155" d="M373.476,116.141a5.859,5.859,0,0,0,0,11.719h13.956V116.141Zm0,0" transform="translate(-223.712 -70.773)" fill="#50cbd8"/>
      <path id="Path_156" data-name="Path 156" d="M373.476,43.332a5.859,5.859,0,0,0,0,11.719h13.956V43.332Zm0,0" transform="translate(-223.712 -26.405)" fill="#d26092"/>
      <path id="Path_157" data-name="Path 157" d="M7.022,354.629H58.487a6.52,6.52,0,0,0,6.52-6.522V261.349a6.521,6.521,0,0,0-6.52-6.522H7.022A6.522,6.522,0,0,0,.5,261.349v86.759a6.521,6.521,0,0,0,6.522,6.522Zm0,0" transform="translate(0 -155.285)" fill="#2b608e"/>
      <path id="Path_158" data-name="Path 158" d="M7.022,254.828A6.522,6.522,0,0,0,.5,261.35v86.759a6.521,6.521,0,0,0,6.522,6.522H32.754v-99.8Zm0,0" transform="translate(0 -155.285)" fill="#2b76ae"/>
      <path id="Path_159" data-name="Path 159" d="M66.115,452.1H38.2a5.859,5.859,0,0,1,0-11.719H66.115a5.859,5.859,0,1,1,0,11.719Zm0,0" transform="translate(-19.405 -268.358)" fill="#44b5e1"/>
      <path id="Path_160" data-name="Path 160" d="M66.115,379.293H38.2a5.859,5.859,0,0,1,0-11.719H66.115a5.859,5.859,0,1,1,0,11.719Zm0,0" transform="translate(-19.405 -223.99)" fill="#44b5e1"/>
      <path id="Path_161" data-name="Path 161" d="M66.115,306.489H38.2a5.859,5.859,0,0,1,0-11.719H66.115a5.859,5.859,0,1,1,0,11.719Zm0,0" transform="translate(-19.405 -179.625)" fill="#cf4c88"/>
      <path id="Path_162" data-name="Path 162" d="M32.344,446.24A5.86,5.86,0,0,0,38.2,452.1H52.159v-11.72H38.2A5.861,5.861,0,0,0,32.344,446.24Zm0,0" transform="translate(-19.405 -268.355)" fill="#50cbd8"/>
      <path id="Path_163" data-name="Path 163" d="M38.2,367.574a5.859,5.859,0,0,0,0,11.719H52.159V367.574Zm0,0" transform="translate(-19.405 -223.99)" fill="#50cbd8"/>
      <path id="Path_164" data-name="Path 164" d="M38.2,294.768a5.859,5.859,0,0,0,0,11.719H52.159v-11.72H38.2Zm0,0" transform="translate(-19.405 -179.623)" fill="#d26092"/>
    </g>
  </g>
</svg>
