<svg width="150" height="150" viewBox="0 0 150 150" fill="none" xmlns="http://www.w3.org/2000/svg">
<g clip-path="url(#clip0)">
<path d="M150 95.9318C150 93.6939 148.683 91.8243 146.808 90.8989V56.1833C147.233 56.0228 147.498 55.6215 147.493 55.1729C147.493 54.7244 147.2 54.3278 146.79 54.1815L75.1629 28.9179C74.247 28.5921 73.2461 28.5921 72.3254 28.9179L0.708239 54.1862C0.288044 54.3325 0.00476716 54.7291 4.58743e-05 55.1777C-0.00467541 55.6262 0.264438 56.0275 0.679911 56.188L72.198 84.0247C73.1942 84.4071 74.2942 84.4071 75.2904 84.0247L141.87 58.0954V90.8942C140 91.8148 138.683 93.6986 138.683 95.9224C138.683 98.2452 140.1 100.261 142.125 101.125C140.1 105.124 138.683 113.33 138.683 115.671C138.683 118.792 141.218 121.323 144.339 121.323C147.455 121.323 149.991 118.792 149.991 115.671C149.991 113.33 148.57 105.124 146.549 101.125C148.579 100.271 150 98.2547 150 95.9318Z" fill="url(#paint0_linear)"/>
<path d="M23.0776 70.2055C23.0824 78.2128 23.0871 87.6365 23.0871 89.1332C23.0871 104.043 45.5274 116.181 73.7465 116.942C101.961 116.181 124.401 104.057 124.401 89.1332C124.401 87.646 124.401 78.2176 124.411 70.2055L75.2809 89.3315C74.2847 89.7186 73.1847 89.7186 72.1885 89.3315L23.0776 70.2055Z" fill="url(#paint1_linear)"/>
</g>
<defs>
<linearGradient id="paint0_linear" x1="75" y1="28.6735" x2="75" y2="121.323" gradientUnits="userSpaceOnUse">
<stop stop-color="#FFB150"/>
<stop offset="0.703125" stop-color="#FF9A1C"/>
<stop offset="1" stop-color="#F78900"/>
</linearGradient>
<linearGradient id="paint1_linear" x1="73.7441" y1="70.2055" x2="73.7441" y2="116.942" gradientUnits="userSpaceOnUse">
<stop stop-color="#FFB150"/>
<stop offset="0.703125" stop-color="#FF9A1C"/>
<stop offset="1" stop-color="#F78900"/>
</linearGradient>
<clipPath id="clip0">
<rect width="150" height="150" fill="white"/>
</clipPath>
</defs>
</svg>
