<svg xmlns="http://www.w3.org/2000/svg" width="250" height="250" viewBox="0 0 250 250">
  <g id="education-banner-icn" transform="translate(-4004 -1819)">
    <g id="education-banner-icn-2" data-name="education-banner-icn" transform="translate(4029 1843.5)">
      <path id="Path_92" data-name="Path 92" d="M366.254,363.821a6.226,6.226,0,0,0-4.687-1.405l-75.742,11.719L276.1,388.313l9.726,20.978,75.742,11.717h.821a5.765,5.765,0,0,0,5.858-5.859V368.275a5.868,5.868,0,0,0-1.991-4.454Zm0,0" transform="translate(-168.248 -220.511)" fill="#fff"/>
      <path id="Path_93" data-name="Path 93" d="M82.42,374.134,6.68,362.416a6.23,6.23,0,0,0-4.689,1.405A5.873,5.873,0,0,0,0,368.275v46.874A5.873,5.873,0,0,0,1.991,419.6a5.831,5.831,0,0,0,3.868,1.405H6.68l75.74-11.717,8.789-20.274Zm0,0" transform="translate(0 -220.511)" fill="#fff"/>
      <path id="Path_94" data-name="Path 94" d="M220.608,107.6H126.859A5.8,5.8,0,0,0,121,113.457V150.84a5.811,5.811,0,0,0,3.867,5.507l46.875,16.759a5.829,5.829,0,0,0,3.984,0L222.6,156.347a5.812,5.812,0,0,0,3.868-5.507V113.457a5.8,5.8,0,0,0-5.859-5.859Zm0,0" transform="translate(-73.735 -65.263)" fill="#444"/>
      <path id="Path_95" data-name="Path 95" d="M203.3,30.148,120.882.851a5.829,5.829,0,0,0-3.984,0l-82.03,29.3a5.855,5.855,0,0,0,0,11.015l82.03,29.3a5.829,5.829,0,0,0,3.984,0l82.42-29.3a5.855,5.855,0,0,0,0-11.015Zm0,0" transform="translate(-18.891)" fill="#6e6e6e"/>
      <path id="Path_96" data-name="Path 96" d="M453.909,171.912a5.859,5.859,0,0,0,2.62-7.861l-11.1-22.2V90.5l-11.719.51v50.839l-11.1,22.2a5.86,5.86,0,0,0,10.483,5.241l.618-1.236v10.333a5.859,5.859,0,1,0,11.719,0V168.056c2.255,4.512,5.547,5.312,8.479,3.856Zm0,0" transform="translate(-257.15 -54.844)" fill="#ff9f00"/>
      <path id="Path_98" data-name="Path 98" d="M211,392.5v35.156h35.156V392.5Zm0,0" transform="translate(-128.576 -238.872)" fill="#ff7816"/>
      <path id="Path_100" data-name="Path 100" d="M256,392.5h17.578v35.156H256Zm0,0" transform="translate(-155.998 -238.872)" fill="#ff4b00"/>
    </g>
    <rect id="Rectangle_123" data-name="Rectangle 123" width="250" height="250" transform="translate(4004 1819)" fill="none"/>
  </g>
</svg>
