<svg width="150" height="150" viewBox="0 0 150 150" fill="none" xmlns="http://www.w3.org/2000/svg">
<g clip-path="url(#clip0)">
<path d="M149.528 66.6727C149.292 64.5645 146.832 62.9784 144.706 62.9784C137.834 62.9784 131.735 58.9448 129.177 52.7017C126.566 46.3088 128.25 38.8547 133.371 34.1575C134.983 32.683 135.18 30.214 133.828 28.5002C130.309 24.0333 126.312 19.9977 121.946 16.5006C120.238 15.1306 117.729 15.3213 116.246 16.9618C111.776 21.9127 103.746 23.7524 97.5405 21.1634C91.0853 18.4473 87.0109 11.9039 87.4111 4.8805C87.5428 2.67299 85.9288 0.754794 83.7291 0.498559C78.1263 -0.150138 72.4742 -0.16895 66.8552 0.454447C64.6834 0.694465 63.0707 2.56725 63.1427 4.74687C63.386 11.7015 59.2655 18.1295 52.8726 20.7483C46.7417 23.2529 38.7673 21.4268 34.3062 16.5194C32.8317 14.9029 30.366 14.7044 28.6463 16.0452C24.1522 19.5722 20.0647 23.6103 16.5138 28.0409C15.1301 29.7632 15.3344 32.2594 16.9607 33.7391C22.1821 38.4674 23.8655 45.9858 21.1546 52.4533C18.5663 58.6192 12.1643 62.5911 4.83594 62.5911C2.45782 62.5146 0.765375 64.1123 0.502652 66.2751C-0.156423 71.9077 -0.163559 77.65 0.470866 83.3286C0.707641 85.446 3.2395 87.0184 5.38928 87.0184C11.9217 86.8524 18.1894 90.8937 20.8224 97.2944C23.4425 103.687 21.7559 111.138 16.6273 115.842C15.0231 117.316 14.8181 119.78 16.1726 121.491C19.6554 125.93 23.6566 129.969 28.0353 133.496C29.7543 134.88 32.2544 134.686 33.7445 133.043C38.2321 128.081 46.261 126.244 52.4412 128.839C58.9152 131.548 62.9877 138.09 62.59 145.116C62.4596 147.323 64.0775 149.247 66.2694 149.498C69.1367 149.833 72.0188 149.999 74.9101 149.999C77.6541 149.999 80.3987 149.849 83.1433 149.544C85.3178 149.304 86.9278 147.429 86.8545 145.249C86.6035 138.297 90.7331 131.869 97.1182 129.255C103.29 126.734 111.229 128.579 115.692 133.479C117.175 135.093 119.625 135.289 121.352 133.953C125.839 130.435 129.918 126.399 133.485 121.957C134.87 120.238 134.673 117.738 133.038 116.256C127.818 111.531 126.125 104.009 128.836 97.5481C131.384 91.4653 137.548 87.3811 144.178 87.3811L145.105 87.4057C147.258 87.5802 149.236 85.9228 149.496 83.727C150.158 78.0891 150.165 72.3534 149.528 66.6727ZM75.0002 118.238C51.1198 118.238 31.762 98.8798 31.762 75C31.762 51.1202 51.1204 31.7625 75.0002 31.7625C98.8801 31.7625 118.238 51.1202 118.238 75C118.238 83.1055 116.004 90.6868 112.123 97.1699L93.1897 78.2364C94.5604 75.0046 95.2843 71.501 95.2837 67.8851C95.2837 60.8046 92.5261 54.1483 87.5188 49.1424C82.5128 44.1364 75.8565 41.3794 68.7773 41.3794C66.4147 41.3794 64.0632 41.6934 61.7882 42.3129C60.7918 42.5847 59.9771 43.4059 59.7118 44.4043C59.4406 45.4253 59.7461 46.4717 60.544 47.2702C60.544 47.2702 69.8911 56.6893 73.0185 59.816C73.3461 60.1436 73.3454 60.9253 73.2994 61.2068L73.2702 61.4124C72.9549 64.8505 72.3471 68.9775 71.8456 70.5636C71.7782 70.6304 71.7146 70.6869 71.6458 70.7556C71.5738 70.8276 71.5077 70.897 71.4382 70.9684C69.8314 71.4841 65.6409 72.0991 62.1483 72.4117L62.1489 72.3929L61.9919 72.4325C61.964 72.4357 61.9121 72.4396 61.8434 72.4396C61.4658 72.4396 60.9106 72.3339 60.4059 71.8299C57.1507 68.5747 48.1702 59.6584 48.1702 59.6584C47.3645 58.8553 46.538 58.6866 45.9873 58.6866C44.7035 58.6866 43.554 59.6143 43.1921 60.9447C40.7199 70.0933 43.3406 79.934 50.0332 86.6273C55.0405 91.6339 61.6974 94.3909 68.7779 94.3909C72.3938 94.3909 75.8974 93.6676 79.1285 92.2969L98.267 111.435C91.5478 115.735 83.5689 118.238 75.0002 118.238Z" fill="url(#paint0_linear)"/>
</g>
<defs>
<linearGradient id="paint0_linear" x1="75.0005" y1="-0.000823975" x2="75.0005" y2="149.999" gradientUnits="userSpaceOnUse">
<stop stop-color="#FFB150"/>
<stop offset="0.703125" stop-color="#FF9A1C"/>
<stop offset="1" stop-color="#F78900"/>
</linearGradient>
<clipPath id="clip0">
<rect width="150" height="150" fill="white"/>
</clipPath>
</defs>
</svg>
