<svg xmlns="http://www.w3.org/2000/svg" width="250" height="250" viewBox="0 0 250 250">
  <g id="field-banner-icn" transform="translate(-4432 -2541)">
    <g id="insurance-banner-icn" transform="translate(-1097 724)">
      <rect id="Rectangle_126" data-name="Rectangle 126" width="250" height="250" transform="translate(5529 1817)" fill="none"/>
    </g>
    <g id="tools_1_" data-name="tools (1)" transform="translate(4457 2566)">
      <path id="Path_131" data-name="Path 131" d="M200,100a100.1,100.1,0,0,1-64.9,93.665,98.443,98.443,0,0,1-12.755,3.829A100.012,100.012,0,1,1,200,100Z" fill="#fff"/>
      <path id="Path_132" data-name="Path 132" d="M212.312,78.014a78.1,78.1,0,0,1-50.633,73.073,76.876,76.876,0,0,1-9.951,2.987,78.024,78.024,0,1,1,60.584-76.06Z" transform="translate(-34.297)" fill="#fff"/>
      <g id="Group_39" data-name="Group 39" transform="translate(4.08 6.943)">
        <path id="Path_133" data-name="Path 133" d="M125.736,236.962V341.113A99.748,99.748,0,0,1,84.1,318.5V236.962Z" transform="translate(-55.331 -151.342)" fill="#535e8a"/>
        <path id="Path_134" data-name="Path 134" d="M79.014,17.774V47.682A18.979,18.979,0,0,1,60.035,66.661h0A18.979,18.979,0,0,1,41.056,47.682V17.774a49.59,49.59,0,1,0,37.958,0Z" transform="translate(-10.446 -17.774)" fill="#535e8a"/>
      </g>
      <g id="Group_40" data-name="Group 40" transform="translate(4.08 6.943)">
        <path id="Path_135" data-name="Path 135" d="M90.295,331.725V250.3l-6.191-.157v76.39" transform="translate(-55.331 -159.373)" fill="#323b5b"/>
        <path id="Path_136" data-name="Path 136" d="M45.49,108.653a49.6,49.6,0,0,1-4.433-87.782v-3.1A49.607,49.607,0,0,0,45.409,111Z" transform="translate(-10.446 -17.773)" fill="#323b5b"/>
      </g>
      <rect id="Rectangle_127" data-name="Rectangle 127" width="16.53" height="88.771" transform="translate(141.629 69.384)" fill="#ededed"/>
      <rect id="Rectangle_128" data-name="Rectangle 128" width="6.061" height="88.771" transform="translate(141.629 69.384)" fill="#bdbdbd"/>
      <path id="Path_137" data-name="Path 137" d="M373.618,64.957l-12.04-40.406h-12.04L337.5,64.957l9.8,20.61h16.53Z" transform="translate(-205.662 -14.961)" fill="#ededed"/>
      <path id="Path_138" data-name="Path 138" d="M362.006,427.678A99.808,99.808,0,0,1,313.2,454.907v-12.8a19.687,19.687,0,0,1,19.686-19.686h15.73A19.625,19.625,0,0,1,362.006,427.678Z" transform="translate(-190.855 -257.413)" fill="#ff4f6f"/>
      <path id="Path_139" data-name="Path 139" d="M345.639,422.421a19.684,19.684,0,0,0-19.686,19.686v8.971a98.439,98.439,0,0,1-12.755,3.829v-12.8a19.687,19.687,0,0,1,19.686-19.686Z" transform="translate(-190.855 -257.413)" fill="#e33958"/>
      <path id="Path_140" data-name="Path 140" d="M353.353,85.567,341.308,64.459l9.66-36.327h11.676l-1.067-3.581h-12.04L337.5,64.957l9.8,20.61,3.722,2.339Z" transform="translate(-205.662 -14.961)" fill="#bdbdbd"/>
      <path id="Path_141" data-name="Path 141" d="M362.181,408.544H319.323a6.122,6.122,0,0,1-6.122-6.122h0a6.122,6.122,0,0,1,6.122-6.122H362.18a6.123,6.123,0,0,1,6.122,6.122h0A6.122,6.122,0,0,1,362.181,408.544Z" transform="translate(-190.857 -241.495)" fill="#ff4f6f"/>
      <path id="Path_142" data-name="Path 142" d="M326.263,402.421a6.122,6.122,0,0,1,6.122-6.122H319.323a6.122,6.122,0,0,0,0,12.245h13.063A6.122,6.122,0,0,1,326.263,402.421Z" transform="translate(-190.857 -241.495)" fill="#e33958"/>
    </g>
  </g>
</svg>
