<svg xmlns="http://www.w3.org/2000/svg" width="250" height="250" viewBox="0 0 250 250">
  <g id="Group_45" data-name="Group 45" transform="translate(-6230 -2469)">
    <g id="insurance-banner-icn" transform="translate(701 652)">
      <rect id="Rectangle_126" data-name="Rectangle 126" width="250" height="250" transform="translate(5529 1817)" fill="none"/>
    </g>
    <g id="implement" transform="translate(6255 2494)">
      <path id="Path_165" data-name="Path 165" d="M168.965,286.483H13.793A13.794,13.794,0,0,1,0,272.69V152H168.965Zm0,0" transform="translate(0 -86.483)" fill="#fff"/>
      <path id="Path_166" data-name="Path 166" d="M27.586,265.793V152h-6.9V258.9h-6.9A13.794,13.794,0,0,0,0,272.69a13.637,13.637,0,0,0,.931,4.873,16.408,16.408,0,0,1,16.31-11.769Zm0,0" transform="translate(0 -86.483)" fill="#3086cd"/>
      <path id="Path_167" data-name="Path 167" d="M223.586,168,96,295.586H223.586Zm0,0" transform="translate(-54.621 -95.586)" fill="#fff"/>
      <path id="Path_168" data-name="Path 168" d="M20.69,222.483h-6.9A13.794,13.794,0,0,0,0,236.276V101.793A13.794,13.794,0,0,1,13.793,88h6.9Zm0,0" transform="translate(0 -50.069)" fill="#2571a0"/>
      <g id="Group_42" data-name="Group 42" transform="translate(34.483 82.759)">
        <path id="Path_169" data-name="Path 169" d="M80,192h41.379v27.586H80Zm0,0" transform="translate(-80 -192)" fill="#4db7e5"/>
        <path id="Path_170" data-name="Path 170" d="M80,336h41.379v27.586H80Zm0,0" transform="translate(-80 -273.931)" fill="#4db7e5"/>
        <path id="Path_171" data-name="Path 171" d="M256,192h41.379v27.586H256Zm0,0" transform="translate(-180.138 -192)" fill="#4db7e5"/>
        <path id="Path_172" data-name="Path 172" d="M256,336h41.379v27.586H256Zm0,0" transform="translate(-180.138 -273.931)" fill="#4db7e5"/>
      </g>
      <path id="Path_173" data-name="Path 173" d="M176,216h34.483v6.9H176Zm0,0" transform="translate(-100.138 -122.897)" fill="#48add9"/>
      <path id="Path_174" data-name="Path 174" d="M296,256h6.9v34.483H296Zm0,0" transform="translate(-168.414 -145.655)" fill="#48add9"/>
      <path id="Path_175" data-name="Path 175" d="M176,360h34.483v6.9H176Zm0,0" transform="translate(-100.138 -204.828)" fill="#48add9"/>
      <path id="Path_176" data-name="Path 176" d="M318.345,65.517V44.828H303.206a42.658,42.658,0,0,0-4.413-10.655l10.724-10.69L294.862,8.828l-10.69,10.724a42.658,42.658,0,0,0-10.655-4.413V0h-20.69V15.138a42.658,42.658,0,0,0-10.655,4.413L231.483,8.828,216.828,23.483l10.724,10.69a42.659,42.659,0,0,0-4.413,10.655H208v20.69h15.138a42.658,42.658,0,0,0,4.413,10.655l-10.724,10.69,9.724,9.69,4.932,4.932,10.69-10.69a42.658,42.658,0,0,0,10.655,4.413v15.138h20.69V95.206a42.658,42.658,0,0,0,10.655-4.413l10.69,10.69,14.655-14.622-10.724-10.69a42.658,42.658,0,0,0,4.413-10.655ZM252.827,55.172a10.345,10.345,0,1,1,10.345,10.345A10.345,10.345,0,0,1,252.827,55.172Zm0,0" transform="translate(-118.345)" fill="#444"/>
      <path id="Path_177" data-name="Path 177" d="M295.034,118.069a31.034,31.034,0,1,1,31.034-31.034A31.034,31.034,0,0,1,295.034,118.069Zm0-55.172a24.138,24.138,0,1,0,24.138,24.138A24.137,24.137,0,0,0,295.034,62.9Zm0,0" transform="translate(-150.207 -31.862)" fill="#6e6e6e"/>
    </g>
  </g>
</svg>
