<svg xmlns="http://www.w3.org/2000/svg" xmlns:xlink="http://www.w3.org/1999/xlink" width="250" height="250" viewBox="0 0 250 250">
  <defs>
    <linearGradient id="linear-gradient" x1="0.463" y1="-0.173" x2="0.463" y2="1.026" gradientUnits="objectBoundingBox">
      <stop offset="0" stop-color="#d63305"/>
      <stop offset="0.117" stop-color="#d8360c"/>
      <stop offset="0.288" stop-color="#dd3e20"/>
      <stop offset="0.492" stop-color="#e44c40"/>
      <stop offset="0.722" stop-color="#ef606c"/>
      <stop offset="0.97" stop-color="#fd78a5"/>
      <stop offset="1" stop-color="#ff7bac"/>
    </linearGradient>
    <linearGradient id="linear-gradient-2" x1="0.656" y1="-0.1" x2="0.079" y2="0.877" gradientUnits="objectBoundingBox">
      <stop offset="0" stop-color="#d63305" stop-opacity="0"/>
      <stop offset="1" stop-color="#b72401"/>
    </linearGradient>
  </defs>
  <g id="healthcare-banner-icn" transform="translate(-4541 -1819)">
    <g id="healthcare-banner-icn-2" data-name="healthcare-banner-icn" transform="translate(4566 1814.266)">
      <path id="Path_101" data-name="Path 101" d="M150,48.734a50,50,0,0,0-50,50,50,50,0,1,0-100,0c0,53.681,73.456,98.7,94.455,110.477a11.332,11.332,0,0,0,11.09,0c21-11.773,94.455-56.8,94.455-110.477A50,50,0,0,0,150,48.734Z" fill="url(#linear-gradient)"/>
      <path id="Path_102" data-name="Path 102" d="M113.617,300.375a11.332,11.332,0,0,0,11.09,0c15.482-8.68,59.474-35.436,81.523-70.408h-.007c.218-.346.438-.693.653-1.041l0,0h-44.57a14.086,14.086,0,0,0-9.745,3.882l-.055-.045L132.651,212.9a5.685,5.685,0,0,0-9.9,1.8l-2.33,7.448-21.663-21.6a5.694,5.694,0,0,0-9.969,1.884l-6.1,20.97a7.7,7.7,0,0,1-7.357,5.521H31.446l0,0q1.481,2.408,3.1,4.764l.151.22q.523.759,1.057,1.512h.315l39.568,39.854A321.449,321.449,0,0,0,113.617,300.375Z" transform="translate(-19.162 -91.164)" fill="url(#linear-gradient-2)"/>
      <path id="Path_103" data-name="Path 103" d="M206.879,228.923h-44.57a14.093,14.093,0,0,0-11.961,6.58l-5.1,8.048-11.808-29.276a5.681,5.681,0,0,0-10.691.429l-11.213,35.849L99.757,202.662a5.681,5.681,0,0,0-10.972-.23l-6.1,20.97a7.7,7.7,0,0,1-7.357,5.521H31.446q2.029,3.3,4.308,6.5H75.325a14.235,14.235,0,0,0,13.6-10.205l5.25-18.041,11.748,47.776a5.629,5.629,0,0,0,5.34,4.323l.185,0a5.625,5.625,0,0,0,5.414-3.986l11.405-36.463,11.548,28.631a5.682,5.682,0,0,0,10.068.916l5.955-9.395a7.623,7.623,0,0,1,6.471-3.56h40.262Q204.845,232.223,206.879,228.923Z" transform="translate(-19.162 -91.164)" fill="#fff"/>
    </g>
    <rect id="Rectangle_124" data-name="Rectangle 124" width="250" height="250" transform="translate(4541 1819)" fill="none"/>
  </g>
</svg>
