<svg width="150" height="150" viewBox="0 0 150 150" fill="none" xmlns="http://www.w3.org/2000/svg">
<path d="M110.156 9.66797C92.3851 9.66797 80.978 21.9762 75 33.0612C69.022 21.9759 57.6149 9.66797 39.8438 9.66797C17.296 9.66797 0 27.9627 0 52.227C0 58.558 1.26768 64.403 3.60176 70.0195H37.1273L44.7018 54.8704C46.1953 51.8921 51.0703 51.8921 52.5639 54.8704L66.2109 82.1648L71.0689 72.4488C72.5625 69.4705 77.4375 69.4705 78.9311 72.4488L83.7891 82.1648L97.4361 54.8707C98.9297 51.8924 103.805 51.8924 105.298 54.8707L112.873 70.0195H146.398C148.732 64.403 150 58.558 150 52.227C150 27.9627 132.704 9.66797 110.156 9.66797Z" fill="url(#paint0_linear)"/>
<path d="M110.156 78.8086C108.491 78.8086 106.972 77.8688 106.225 76.3796L101.367 66.6636L87.7201 93.9577C86.9734 95.4469 85.4543 96.3867 83.7891 96.3867C82.1239 96.3867 80.6048 95.4469 79.858 93.9577L75 84.2417L70.142 93.9577C68.6485 96.936 63.7735 96.936 62.2799 93.9577L48.6328 66.6636L43.7748 76.3796C43.0281 77.8688 41.509 78.8086 39.8438 78.8086H8.21399C17.2588 93.0393 33.5482 106.557 53.9241 123.754C59.6447 128.582 65.7302 133.719 72.1201 139.259C72.9484 139.976 73.974 140.332 74.9997 140.332C76.0254 140.332 77.0511 139.976 77.8793 139.259C84.2696 133.719 90.3548 128.582 96.0753 123.754C116.452 106.557 132.741 93.0393 141.785 78.8086H110.156Z" fill="url(#paint1_linear)"/>
<defs>
<linearGradient id="paint0_linear" x1="75" y1="9.66797" x2="75" y2="82.1648" gradientUnits="userSpaceOnUse">
<stop stop-color="#FFB150"/>
<stop offset="0.703125" stop-color="#FF9A1C"/>
<stop offset="1" stop-color="#F78900"/>
</linearGradient>
<linearGradient id="paint1_linear" x1="74.9997" y1="66.6636" x2="74.9997" y2="140.332" gradientUnits="userSpaceOnUse">
<stop stop-color="#FFB150"/>
<stop offset="0.703125" stop-color="#FF9A1C"/>
<stop offset="1" stop-color="#F78900"/>
</linearGradient>
</defs>
</svg>
