<svg width="150" height="150" viewBox="0 0 150 150" fill="none" xmlns="http://www.w3.org/2000/svg">
<g clip-path="url(#clip0)">
<path d="M85.7143 112.5H112.5V128.571H85.7143V112.5Z" fill="url(#paint0_linear)"/>
<path d="M87.0941 78.0592C86.7135 78.4228 86.2335 78.6634 85.7143 78.7497V80.3571H99.1071V73.2775C97.348 72.7099 95.6373 72.0023 93.9907 71.1613L87.0941 78.0592Z" fill="url(#paint1_linear)"/>
<path d="M120.536 73.2775V83.0357C120.536 84.5149 119.336 85.7143 117.857 85.7143H101.786V107.143H115.179C116.658 107.143 117.857 108.342 117.857 109.821V131.25C117.857 132.729 116.658 133.929 115.179 133.929H83.0357C81.5565 133.929 80.3571 132.729 80.3571 131.25V123.214H58.9286V131.25C58.9286 132.729 57.7292 133.929 56.25 133.929H24.1071C22.6279 133.929 21.4286 132.729 21.4286 131.25V109.821C21.4286 108.342 22.6279 107.143 24.1071 107.143H56.25C57.7292 107.143 58.9286 108.342 58.9286 109.821V117.857H80.3571V109.821C80.3571 108.342 81.5565 107.143 83.0357 107.143H96.4286V85.7143H83.0357C81.5565 85.7143 80.3571 84.5149 80.3571 83.0357V75.1099L80.2473 75H58.9286V83.0357C58.9286 84.5149 57.7292 85.7143 56.25 85.7143H24.1071C22.6279 85.7143 21.4286 84.5149 21.4286 83.0357V61.6071C21.4286 60.1279 22.6279 58.9286 24.1071 58.9286H56.25C57.7292 58.9286 58.9286 60.1279 58.9286 61.6071V69.6429H74.8875L71.9408 66.6962C70.8958 65.6498 70.8958 63.9548 71.9408 62.9085L78.8413 56.0093C77.9977 54.364 77.2888 52.6533 76.7225 50.8929H16.0714V131.25C16.0714 132.729 14.8721 133.929 13.3929 133.929H8.03571C3.59802 133.929 0 137.527 0 141.964C0 146.402 3.59802 150 8.03571 150H125.893V71.4033L125.652 71.1613C124.006 72.0023 122.295 72.7099 120.536 73.2775Z" fill="url(#paint2_linear)"/>
<path d="M10.7143 128.571V29.4643H8.03571C3.59802 29.4643 0 33.0623 0 37.5V131.25C2.31628 129.508 5.13742 128.568 8.03571 128.571H10.7143Z" fill="url(#paint3_linear)"/>
<path d="M26.7857 112.5H53.5714V128.571H26.7857V112.5Z" fill="url(#paint4_linear)"/>
<path d="M26.7857 64.2857H53.5714V80.3571H26.7857V64.2857Z" fill="url(#paint5_linear)"/>
<path d="M109.821 21.4286C99.4655 21.4286 91.0714 29.8227 91.0714 40.1786C91.0714 50.5345 99.4655 58.9286 109.821 58.9286C120.177 58.9286 128.571 50.5345 128.571 40.1786C128.558 29.8292 120.171 21.4417 109.821 21.4286ZM109.821 50.8929C103.905 50.8929 99.1071 46.0955 99.1071 40.1786C99.1071 34.2617 103.905 29.4643 109.821 29.4643C115.738 29.4643 120.536 34.2617 120.536 40.1786C120.536 46.0955 115.738 50.8929 109.821 50.8929Z" fill="url(#paint6_linear)"/>
<path d="M115.179 40.1786C115.179 43.137 112.78 45.5357 109.821 45.5357C106.863 45.5357 104.464 43.137 104.464 40.1786C104.464 37.2201 106.863 34.8214 109.821 34.8214C112.78 34.8214 115.179 37.2201 115.179 40.1786Z" fill="url(#paint7_linear)"/>
<path d="M138.317 47.5446C138.621 46.3623 139.687 45.5357 140.909 45.5357H150V34.8214H140.909C139.687 34.8214 138.621 33.9948 138.317 32.8125C137.633 30.1535 136.577 27.6045 135.182 25.2398C134.56 24.1869 134.73 22.8476 135.595 21.9831L142.023 15.5548L134.443 7.97947L128.014 14.4078C127.15 15.2723 125.809 15.4423 124.758 14.8211C122.393 13.4256 119.844 12.3701 117.185 11.6861C116.003 11.38 115.177 10.3128 115.179 9.09119V0H104.464V9.09119C104.464 10.3128 103.638 11.3787 102.455 11.6834C99.7964 12.3675 97.2473 13.4229 94.8826 14.8185C93.8298 15.4397 92.4905 15.2697 91.626 14.4052L85.1977 7.97686L77.6223 15.5574L84.0506 21.9857C84.9152 22.8503 85.0852 24.1908 84.4639 25.2424C83.0684 27.6071 82.0129 30.1562 81.3289 32.8151C81.0242 33.9975 79.9582 34.824 78.7367 34.824H69.6429V45.5383H78.734C79.9556 45.5383 81.0215 46.3649 81.3263 47.5473C82.0103 50.2062 83.0658 52.7553 84.4613 55.12C85.0826 56.1728 84.9125 57.5121 84.048 58.3766L77.6197 64.8049L82.4655 69.6429H83.0357V70.2131L85.144 72.3214H85.2539L91.626 65.952C92.4905 65.0874 93.8298 64.9174 94.8826 65.5387C97.2473 66.9342 99.7964 67.9897 102.455 68.6737C103.638 68.9784 104.464 70.0444 104.464 71.266V80.3571H115.179V71.266C115.179 70.0444 116.005 68.9784 117.187 68.6737C119.846 67.9897 122.396 66.9342 124.76 65.5387C125.813 64.9174 127.152 65.0874 128.017 65.952L134.445 72.3803L142.023 64.8023L135.595 58.374C134.73 57.5095 134.56 56.1702 135.182 55.1174C136.577 52.7527 137.633 50.2036 138.317 47.5446V47.5446ZM109.821 64.2857C96.507 64.2857 85.7143 53.493 85.7143 40.1786C85.7143 26.8642 96.507 16.0714 109.821 16.0714C123.136 16.0714 133.929 26.8642 133.929 40.1786C133.914 53.4864 123.129 64.2713 109.821 64.2857Z" fill="url(#paint8_linear)"/>
</g>
<defs>
<linearGradient id="paint0_linear" x1="99.1072" y1="112.5" x2="99.1072" y2="128.571" gradientUnits="userSpaceOnUse">
<stop stop-color="#FFB150"/>
<stop offset="0.703125" stop-color="#FF9A1C"/>
<stop offset="1" stop-color="#F78900"/>
</linearGradient>
<linearGradient id="paint1_linear" x1="92.4107" y1="71.1613" x2="92.4107" y2="80.3571" gradientUnits="userSpaceOnUse">
<stop stop-color="#FFB150"/>
<stop offset="0.703125" stop-color="#FF9A1C"/>
<stop offset="1" stop-color="#F78900"/>
</linearGradient>
<linearGradient id="paint2_linear" x1="62.9464" y1="50.8929" x2="62.9464" y2="150" gradientUnits="userSpaceOnUse">
<stop stop-color="#FFB150"/>
<stop offset="0.703125" stop-color="#FF9A1C"/>
<stop offset="1" stop-color="#F78900"/>
</linearGradient>
<linearGradient id="paint3_linear" x1="5.35714" y1="29.4643" x2="5.35714" y2="131.25" gradientUnits="userSpaceOnUse">
<stop stop-color="#FFB150"/>
<stop offset="0.703125" stop-color="#FF9A1C"/>
<stop offset="1" stop-color="#F78900"/>
</linearGradient>
<linearGradient id="paint4_linear" x1="40.1786" y1="112.5" x2="40.1786" y2="128.571" gradientUnits="userSpaceOnUse">
<stop stop-color="#FFB150"/>
<stop offset="0.703125" stop-color="#FF9A1C"/>
<stop offset="1" stop-color="#F78900"/>
</linearGradient>
<linearGradient id="paint5_linear" x1="40.1786" y1="64.2857" x2="40.1786" y2="80.3571" gradientUnits="userSpaceOnUse">
<stop stop-color="#FFB150"/>
<stop offset="0.703125" stop-color="#FF9A1C"/>
<stop offset="1" stop-color="#F78900"/>
</linearGradient>
<linearGradient id="paint6_linear" x1="109.821" y1="21.4286" x2="109.821" y2="58.9286" gradientUnits="userSpaceOnUse">
<stop stop-color="#FFB150"/>
<stop offset="0.703125" stop-color="#FF9A1C"/>
<stop offset="1" stop-color="#F78900"/>
</linearGradient>
<linearGradient id="paint7_linear" x1="109.821" y1="34.8214" x2="109.821" y2="45.5357" gradientUnits="userSpaceOnUse">
<stop stop-color="#FFB150"/>
<stop offset="0.703125" stop-color="#FF9A1C"/>
<stop offset="1" stop-color="#F78900"/>
</linearGradient>
<linearGradient id="paint8_linear" x1="109.821" y1="0" x2="109.821" y2="80.3571" gradientUnits="userSpaceOnUse">
<stop stop-color="#FFB150"/>
<stop offset="0.703125" stop-color="#FF9A1C"/>
<stop offset="1" stop-color="#F78900"/>
</linearGradient>
<clipPath id="clip0">
<rect width="150" height="150" fill="white"/>
</clipPath>
</defs>
</svg>
