<svg width="150" height="150" viewBox="0 0 150 150" fill="none" xmlns="http://www.w3.org/2000/svg">
<g clip-path="url(#clip0)">
<path d="M96.9727 123.633V132.422C96.9727 137.267 93.0287 141.211 88.1836 141.211C83.3385 141.211 79.3945 137.267 79.3945 132.422V91.6494C77.9355 91.4751 76.493 91.222 75 91.222C73.507 91.222 72.0645 91.4751 70.6055 91.6494V132.422C70.6055 142.117 78.489 150 88.1836 150C97.8782 150 105.762 142.117 105.762 132.422V123.633H96.9727Z" fill="url(#paint0_linear)"/>
<path d="M79.3945 9.30469V0H70.6055V9.30469C31.4602 11.5989 0 44.078 0 83.7891V92.0074L10.0723 85.2826C14.4712 82.3515 20.1671 81.6519 25.1666 83.3687C30.1749 85.0852 34.0028 88.9477 35.6766 93.9689L37.921 100.715L42.9507 95.6853C60.6231 78.0129 89.3766 78.0129 107.049 95.6853L111.353 99.9896L114.688 93.3463C117.177 88.3638 121.726 84.8232 127.163 83.6259C132.614 82.437 138.516 83.7375 142.859 87.2221L150 92.9344V83.7891C150 44.078 118.54 11.5989 79.3945 9.30469ZM88.1836 53.0273H79.3945V61.8164H70.6055V53.0273H61.8164V44.2383H70.6055V35.4492H79.3945V44.2383H88.1836V53.0273Z" fill="url(#paint1_linear)"/>
</g>
<defs>
<linearGradient id="paint0_linear" x1="88.1836" y1="91.222" x2="88.1836" y2="150" gradientUnits="userSpaceOnUse">
<stop stop-color="#FFB150"/>
<stop offset="0.703125" stop-color="#FF9A1C"/>
<stop offset="1" stop-color="#F78900"/>
</linearGradient>
<linearGradient id="paint1_linear" x1="75" y1="0" x2="75" y2="100.715" gradientUnits="userSpaceOnUse">
<stop stop-color="#FFB150"/>
<stop offset="0.703125" stop-color="#FF9A1C"/>
<stop offset="1" stop-color="#F78900"/>
</linearGradient>
<clipPath id="clip0">
<rect width="150" height="150" fill="white"/>
</clipPath>
</defs>
</svg>
