<svg xmlns="http://www.w3.org/2000/svg" width="250" height="250" viewBox="0 0 250 250">
  <g id="insurance-banner-icn" transform="translate(-5529 -1817)">
    <g id="insurance-banner-icn-2" data-name="insurance-banner-icn" transform="translate(5568.5 1842)">
      <path id="Path_126" data-name="Path 126" d="M161.819,133.559a100.9,100.9,0,0,1-24.167,37.648c-12.135,11.85-28.026,21.266-47.23,27.983a14.449,14.449,0,0,1-4.59.81H85.66a14.654,14.654,0,0,1-2.817-.278,15.26,15.26,0,0,1-1.936-.528c-19.228-6.706-35.138-16.118-47.286-27.968A100.712,100.712,0,0,1,9.459,133.586C-.3,107.1.253,77.916.7,54.467l.008-.36c.09-1.936.148-3.97.18-6.216a21.2,21.2,0,0,1,19.96-20.766c23-1.283,40.784-8.783,55.983-23.6l.133-.122a12.812,12.812,0,0,1,17.393,0l.13.122c15.2,14.815,32.991,22.314,55.986,23.6a21.2,21.2,0,0,1,19.96,20.766c.032,2.261.09,4.292.18,6.216l0,.152C171.063,77.753,171.615,106.992,161.819,133.559Zm0,0" transform="translate(0 0)" fill="#04c272"/>
      <path id="Path_128" data-name="Path 128" d="M190.585,178.243a49.907,49.907,0,0,1-49.669,49.846h-.175a49.845,49.845,0,1,1,0-99.69h.175A49.907,49.907,0,0,1,190.585,178.243Zm0,0" transform="translate(-55.084 -78.242)" fill="#fff"/>
      <path id="Path_130" data-name="Path 130" d="M201.928,222l-22.449,22.452-4.851,4.851a5.874,5.874,0,0,1-8.3,0L155.9,238.866a5.867,5.867,0,0,1,8.3-8.3l6.284,6.284L193.63,213.7a5.867,5.867,0,0,1,8.3,8.3Zm0,0" transform="translate(-93.647 -129.175)" fill="#9daeb2"/>
    </g>
    <rect id="Rectangle_126" data-name="Rectangle 126" width="250" height="250" transform="translate(5529 1817)" fill="none"/>
  </g>
</svg>
