<svg width="150" height="150" viewBox="0 0 150 150" fill="none" xmlns="http://www.w3.org/2000/svg">
<g clip-path="url(#clip0)">
<path d="M36.6748 93.0005C36.0913 92.2583 35.9839 91.2476 36.4001 90.4004C37.0532 89.082 37.6123 87.7209 38.075 86.3245C38.3862 85.4138 39.1931 84.762 40.1502 84.6497L55 82.8003V67.1997L40.1502 65.3503C39.1931 65.238 38.3862 64.5862 38.075 63.6755C37.6123 62.2791 37.0532 60.918 36.4001 59.5996C35.9839 58.7524 36.0913 57.7417 36.6748 56.9995L45.8496 45.1746L34.8499 34.1248L23.0005 43.3252C22.2546 43.8989 21.2488 44.0051 20.4004 43.5999C19.082 42.9468 17.7209 42.3877 16.3245 41.925C15.4138 41.6138 14.762 40.8069 14.6497 39.8499L12.8003 25H7.5V0H2.5V150H7.5V125H12.8003L14.6497 110.15C14.762 109.193 15.4138 108.386 16.3245 108.075C17.7209 107.612 19.082 107.053 20.4004 106.4C21.2476 105.984 22.2583 106.091 23.0005 106.675L34.8254 115.85L45.8752 104.85L36.6748 93.0005ZM7.5 98.4753V93.3752C16.9287 91.5869 23.7524 83.3459 23.7524 73.75C23.7524 64.1541 16.9287 55.9131 7.5 54.1248V49.0247C19.7424 50.8557 28.8025 61.3708 28.8025 73.75C28.8025 86.1292 19.7424 96.6443 7.5 98.4753Z" fill="url(#paint0_linear)"/>
<path d="M139.525 79.9756C139.833 79.071 140.627 78.4216 141.575 78.2996L147.5 77.55V72.45L141.575 71.7004C140.627 71.5784 139.833 70.929 139.525 70.0244C139.301 69.425 139.05 68.8245 138.774 68.2495C138.347 67.3962 138.453 66.3708 139.05 65.625L142.725 60.8997L139.1 57.2754L134.375 60.9497C133.629 61.5466 132.604 61.6528 131.75 61.2256C131.176 60.9497 130.575 60.6995 129.976 60.4749C129.071 60.1672 128.422 59.3726 128.3 58.4253L127.55 52.5H122.45L121.7 58.4253C121.578 59.3726 120.929 60.1672 120.024 60.4749C119.425 60.6995 118.824 60.9497 118.25 61.2256C117.396 61.6528 116.371 61.5466 115.625 60.9497L110.9 57.2754L107.275 60.8997L110.95 65.625C111.547 66.3708 111.653 67.3962 111.226 68.2495C110.95 68.8245 110.699 69.425 110.475 70.0244C110.167 70.929 109.373 71.5784 108.425 71.7004L102.5 72.45V77.55L108.425 78.2996C109.373 78.4216 110.167 79.071 110.475 79.9756C110.699 80.575 110.95 81.1755 111.226 81.7505C111.653 82.6038 111.547 83.6292 110.95 84.375L107.275 89.1003L110.9 92.7246L115.625 89.0503C116.371 88.4534 117.396 88.3472 118.25 88.7744C118.824 89.0503 119.425 89.3005 120.024 89.5251C120.929 89.8328 121.578 90.6274 121.7 91.5747L122.45 97.5H127.55L128.3 91.5747C128.422 90.6274 129.071 89.8328 129.976 89.5251C130.575 89.3005 131.176 89.0503 131.75 88.7744C132.604 88.3472 133.629 88.4534 134.375 89.0503L139.1 92.7246L142.725 89.1003L139.05 84.375C138.453 83.6292 138.347 82.6038 138.774 81.7505C139.05 81.1755 139.301 80.575 139.525 79.9756ZM125 87.5C118.097 87.5 112.5 81.9031 112.5 75C112.5 68.0969 118.097 62.5 125 62.5C131.903 62.5 137.5 68.0969 137.5 75C137.491 81.9006 131.901 87.4915 125 87.5Z" fill="url(#paint1_linear)"/>
<path d="M132.5 75C132.5 79.1418 129.142 82.5 125 82.5C120.858 82.5 117.5 79.1418 117.5 75C117.5 70.8582 120.858 67.5 125 67.5C129.142 67.5 132.5 70.8582 132.5 75Z" fill="url(#paint2_linear)"/>
<path d="M77.9749 32.4756C78.1995 33.075 78.4497 33.6755 78.7256 34.2505C79.1528 35.1038 79.0466 36.1292 78.4497 36.875L74.7754 41.6003L78.3997 45.2246L83.125 41.5503C83.8709 40.9534 84.8962 40.8472 85.7495 41.2744C86.3245 41.5503 86.9251 41.8005 87.5244 42.0251C88.429 42.3328 89.0784 43.1274 89.2004 44.0747L89.95 50H95.0501L95.7996 44.0747C95.9216 43.1274 96.5711 42.3328 97.4756 42.0251C98.075 41.8005 98.6755 41.5503 99.2505 41.2744C100.104 40.8472 101.129 40.9534 101.875 41.5503L106.6 45.2246L110.225 41.6003L106.55 36.875C105.953 36.1292 105.847 35.1038 106.274 34.2505C106.55 33.6755 106.801 33.075 107.025 32.4756C107.333 31.571 108.127 30.9216 109.075 30.7996L115 30.05V24.95L109.075 24.2004C108.127 24.0784 107.333 23.429 107.025 22.5244C106.801 21.925 106.55 21.3245 106.274 20.7495C105.847 19.8962 105.953 18.8708 106.55 18.125L110.225 13.3997L106.6 9.77539L101.875 13.4497C101.129 14.0466 100.104 14.1528 99.2505 13.7256C98.6755 13.4497 98.075 13.1995 97.4756 12.9749C96.5711 12.6672 95.9216 11.8726 95.7996 10.9253L95.0501 5H89.95L89.2004 10.9253C89.0784 11.8726 88.429 12.6672 87.5244 12.9749C86.9251 13.1995 86.3245 13.4497 85.7495 13.7256C84.8962 14.1528 83.8709 14.0466 83.125 13.4497L78.3997 9.77539L74.7754 13.3997L78.4497 18.125C79.0466 18.8708 79.1528 19.8962 78.7256 20.7495C78.4497 21.3245 78.1995 21.925 77.9749 22.5244C77.6672 23.429 76.8726 24.0784 75.9253 24.2004L70 24.95V30.05L75.9253 30.7996C76.8726 30.9216 77.6672 31.571 77.9749 32.4756V32.4756ZM92.5 15C99.4031 15 105 20.5969 105 27.5C105 34.4031 99.4031 40 92.5 40C85.5969 40 80 34.4031 80 27.5C80.0085 20.5994 85.5994 15.0085 92.5 15Z" fill="url(#paint3_linear)"/>
<path d="M100 27.5C100 31.6418 96.6419 35 92.5 35C88.3582 35 85 31.6418 85 27.5C85 23.3582 88.3582 20 92.5 20C96.6419 20 100 23.3582 100 27.5Z" fill="url(#paint4_linear)"/>
<path d="M92.5 115C88.3582 115 85 118.358 85 122.5C84.9964 124.427 85.7422 126.282 87.0801 127.67L87.0996 127.693C88.4986 129.183 90.4566 130.02 92.5 130C96.6419 130 100 126.642 100 122.5C100 118.358 96.6419 115 92.5 115Z" fill="url(#paint5_linear)"/>
<path d="M106.975 117.476C106.794 116.873 106.56 116.287 106.274 115.725C105.859 114.878 105.966 113.867 106.55 113.125L110.225 108.4L106.6 104.775L101.875 108.45C101.129 109.023 100.125 109.13 99.2749 108.726C98.7134 108.44 98.1274 108.206 97.5244 108.025C96.5869 107.726 95.9106 106.904 95.7996 105.925L95.0501 100H89.95L89.2004 105.925C89.0772 106.899 88.407 107.716 87.4756 108.025C86.8726 108.206 86.2866 108.44 85.7251 108.726C84.8755 109.13 83.8709 109.023 83.125 108.45L78.3997 104.775L74.7754 108.4L78.4497 113.125C79.0344 113.867 79.1406 114.878 78.7256 115.725C78.4399 116.287 78.2056 116.873 78.0249 117.476C77.7161 118.407 76.8994 119.077 75.9253 119.2L70 119.95V125.05L75.9253 125.8C76.8994 125.923 77.7161 126.593 78.0249 127.524C78.2056 128.127 78.4399 128.713 78.7256 129.275C79.1406 130.122 79.0344 131.133 78.4497 131.875L74.7754 136.6L78.3997 140.225L83.125 136.55C83.8709 135.977 84.8755 135.87 85.7251 136.274C86.2866 136.56 86.8726 136.794 87.4756 136.975C88.407 137.284 89.0772 138.101 89.2004 139.075L89.95 145H95.0501L95.7996 139.075C95.9229 138.101 96.593 137.284 97.5244 136.975C98.1274 136.794 98.7134 136.56 99.2749 136.274C100.125 135.87 101.129 135.977 101.875 136.55L106.6 140.225L110.225 136.6L106.55 131.875C105.966 131.133 105.859 130.122 106.274 129.275C106.56 128.713 106.794 128.127 106.975 127.524C107.284 126.593 108.101 125.923 109.075 125.8L115 125.05V119.95L109.075 119.2C108.101 119.077 107.284 118.407 106.975 117.476V117.476ZM92.5 135C89.0869 135.005 85.8215 133.605 83.4729 131.128L83.457 131.115C79.3665 126.814 78.8647 120.229 82.2559 115.359C85.647 110.487 91.9959 108.672 97.4487 111.016C102.903 113.358 105.956 119.213 104.757 125.026C103.557 130.839 98.4351 135.007 92.5 135V135Z" fill="url(#paint6_linear)"/>
<path d="M108.175 97.0752L106 94.8755L101.45 102.45L104.449 100.125C105.916 98.9734 108.011 99.1028 109.325 100.425L111.5 102.625L116.05 95.05L113.051 97.3755C111.581 98.5144 109.493 98.3862 108.175 97.0752Z" fill="url(#paint7_linear)"/>
<path d="M109.325 49.5752C108.007 50.8862 105.919 51.0144 104.449 49.8755L101.45 47.55L106 55.1245L108.175 52.9248C109.5 51.6272 111.576 51.499 113.051 52.6245L116.05 54.95L111.5 47.3755L109.325 49.5752Z" fill="url(#paint8_linear)"/>
<path d="M46.4001 38.6499L65 31.2V25.7996L42.55 34.7998L46.4001 38.6499Z" fill="url(#paint9_linear)"/>
<path d="M43.5254 114.225L65 123.425V117.975L47.3499 110.425L43.5254 114.225Z" fill="url(#paint10_linear)"/>
</g>
<defs>
<linearGradient id="paint0_linear" x1="28.75" y1="0" x2="28.75" y2="150" gradientUnits="userSpaceOnUse">
<stop stop-color="#FFB150"/>
<stop offset="0.703125" stop-color="#FF9A1C"/>
<stop offset="1" stop-color="#F78900"/>
</linearGradient>
<linearGradient id="paint1_linear" x1="125" y1="52.5" x2="125" y2="97.5" gradientUnits="userSpaceOnUse">
<stop stop-color="#FFB150"/>
<stop offset="0.703125" stop-color="#FF9A1C"/>
<stop offset="1" stop-color="#F78900"/>
</linearGradient>
<linearGradient id="paint2_linear" x1="125" y1="67.5" x2="125" y2="82.5" gradientUnits="userSpaceOnUse">
<stop stop-color="#FFB150"/>
<stop offset="0.703125" stop-color="#FF9A1C"/>
<stop offset="1" stop-color="#F78900"/>
</linearGradient>
<linearGradient id="paint3_linear" x1="92.5" y1="5" x2="92.5" y2="50" gradientUnits="userSpaceOnUse">
<stop stop-color="#FFB150"/>
<stop offset="0.703125" stop-color="#FF9A1C"/>
<stop offset="1" stop-color="#F78900"/>
</linearGradient>
<linearGradient id="paint4_linear" x1="92.5" y1="20" x2="92.5" y2="35" gradientUnits="userSpaceOnUse">
<stop stop-color="#FFB150"/>
<stop offset="0.703125" stop-color="#FF9A1C"/>
<stop offset="1" stop-color="#F78900"/>
</linearGradient>
<linearGradient id="paint5_linear" x1="92.5" y1="115" x2="92.5" y2="130" gradientUnits="userSpaceOnUse">
<stop stop-color="#FFB150"/>
<stop offset="0.703125" stop-color="#FF9A1C"/>
<stop offset="1" stop-color="#F78900"/>
</linearGradient>
<linearGradient id="paint6_linear" x1="92.5" y1="100" x2="92.5" y2="145" gradientUnits="userSpaceOnUse">
<stop stop-color="#FFB150"/>
<stop offset="0.703125" stop-color="#FF9A1C"/>
<stop offset="1" stop-color="#F78900"/>
</linearGradient>
<linearGradient id="paint7_linear" x1="108.75" y1="94.8755" x2="108.75" y2="102.625" gradientUnits="userSpaceOnUse">
<stop stop-color="#FFB150"/>
<stop offset="0.703125" stop-color="#FF9A1C"/>
<stop offset="1" stop-color="#F78900"/>
</linearGradient>
<linearGradient id="paint8_linear" x1="108.75" y1="47.3755" x2="108.75" y2="55.1245" gradientUnits="userSpaceOnUse">
<stop stop-color="#FFB150"/>
<stop offset="0.703125" stop-color="#FF9A1C"/>
<stop offset="1" stop-color="#F78900"/>
</linearGradient>
<linearGradient id="paint9_linear" x1="53.775" y1="25.7996" x2="53.775" y2="38.6499" gradientUnits="userSpaceOnUse">
<stop stop-color="#FFB150"/>
<stop offset="0.703125" stop-color="#FF9A1C"/>
<stop offset="1" stop-color="#F78900"/>
</linearGradient>
<linearGradient id="paint10_linear" x1="54.2627" y1="110.425" x2="54.2627" y2="123.425" gradientUnits="userSpaceOnUse">
<stop stop-color="#FFB150"/>
<stop offset="0.703125" stop-color="#FF9A1C"/>
<stop offset="1" stop-color="#F78900"/>
</linearGradient>
<clipPath id="clip0">
<rect width="150" height="150" fill="white"/>
</clipPath>
</defs>
</svg>
