<svg xmlns="http://www.w3.org/2000/svg" width="250" height="250" viewBox="0 0 250 250">
  <g id="integrate-banner-icn" transform="translate(-6743 -2469)">
    <g id="insurance-banner-icn" transform="translate(1214 652)">
      <rect id="Rectangle_126" data-name="Rectangle 126" width="250" height="250" transform="translate(5529 1817)" fill="none"/>
    </g>
    <g id="integration" transform="translate(6759.171 2494)">
      <path id="Path_178" data-name="Path 178" d="M330.94,202.914s-5.155,9.141-5.859,10.2a5.892,5.892,0,0,1-7.969,2.227c-1.172-.7-9.023-5.156-9.961-5.859a35.442,35.442,0,0,1-11.016,6.446v7.969a5.8,5.8,0,0,1-5.859,5.859H278.558a5.8,5.8,0,0,1-5.859-5.859v-7.969a35.438,35.438,0,0,1-11.016-6.446L243.4,219.32l-16.992,2.695,5.156-22.851,18.281-9.844a38.811,38.811,0,0,1-.586-6.445,29.385,29.385,0,0,1,.7-6.445l-18.281-9.844-5.977-21.563,17.813,1.407,18.164,9.843a35.863,35.863,0,0,1,11.016-6.445v-7.968A5.8,5.8,0,0,1,278.558,136h11.719a5.8,5.8,0,0,1,5.859,5.859v7.969a34.859,34.859,0,0,1,10.9,6.445h.117c1.171-.7,9.024-5.156,9.961-5.859a5.994,5.994,0,0,1,7.969,2.109s5.156,9.141,5.859,10.2a5.918,5.918,0,0,1-2.109,8.086c-1.289.586-9.023,4.922-9.961,5.625a29.384,29.384,0,0,1,.7,6.445,38.811,38.811,0,0,1-.586,6.445c1.289.586,8.906,4.921,9.843,5.625A5.781,5.781,0,0,1,330.94,202.914Z" transform="translate(-128.503 -82.875)" fill="#50cbd8"/>
      <path id="Path_180" data-name="Path 180" d="M108.687,310.491s-5.155,9.141-5.859,10.2a5.892,5.892,0,0,1-7.969,2.227c-1.171-.7-9.023-5.156-9.961-5.859A37.883,37.883,0,0,1,73.882,323.5v8.359a5.8,5.8,0,0,1-5.859,5.859H56.3a5.8,5.8,0,0,1-5.859-5.859V323.5a37.878,37.878,0,0,1-11.016-6.446c-1.171.7-9.024,5.156-9.961,5.859a5.893,5.893,0,0,1-7.969-2.227c-.7-1.171-5.156-9.14-5.859-10.078a5.849,5.849,0,0,1,1.992-7.969c.117,0,8.906-5.039,9.961-5.742a39.986,39.986,0,0,1-.586-6.445,29.383,29.383,0,0,1,.7-6.445c-1.289-.586-9.024-4.922-9.961-5.625a5.918,5.918,0,0,1-2.109-8.086c.7-1.171,5.155-9.14,5.859-10.078a5.756,5.756,0,0,1,7.851-2.227s9.023,5.156,10.078,5.859A35.863,35.863,0,0,1,50.444,257.4V237.717L62.163,226l11.719,11.719V257.4A35.855,35.855,0,0,1,84.9,263.85l18.164-9.843L114.9,274.162l-18.281,9.844a29.383,29.383,0,0,1,.7,6.445,38.809,38.809,0,0,1-.586,6.445c1.289.586,8.906,4.922,9.843,5.625A5.782,5.782,0,0,1,108.687,310.491Z" transform="translate(0 -137.718)" fill="#444"/>
      <path id="Path_182" data-name="Path 182" d="M115.015,63.555,103.179,83.711,84.9,73.866a52.233,52.233,0,0,1-5.156,3.75,37.675,37.675,0,0,1-5.859,2.7V100H50.445V80.312a35.439,35.439,0,0,1-11.016-6.446c-1.171.7-9.024,5.156-9.961,5.859A5.893,5.893,0,0,1,21.5,77.5c-.7-1.171-5.156-9.14-5.859-10.078a5.85,5.85,0,0,1,1.992-7.969c.117,0,8.906-5.039,9.961-5.742a38.81,38.81,0,0,1-.586-6.445,29.383,29.383,0,0,1,.7-6.445c-1.289-.586-9.024-4.922-9.961-5.625a5.918,5.918,0,0,1-2.109-8.086c.7-1.171,5.155-9.14,5.859-10.078A5.756,5.756,0,0,1,29.351,14.8s9.023,5.156,10.078,5.859a35.863,35.863,0,0,1,11.016-6.445V5.859A5.8,5.8,0,0,1,56.3,0H68.022a5.8,5.8,0,0,1,5.859,5.859v8.359a35.279,35.279,0,0,1,10.9,6.445H84.9c1.171-.7,9.024-5.156,9.961-5.859a5.994,5.994,0,0,1,7.969,2.109s5.156,9.141,5.859,10.2a5.918,5.918,0,0,1-2.109,8.086c-1.289.586-9.023,4.922-9.961,5.625a29.383,29.383,0,0,1,.7,6.445,38.81,38.81,0,0,1-.586,6.445Z" fill="#2571a0"/>
      <path id="Path_184" data-name="Path 184" d="M361.122,212.757a5.664,5.664,0,0,0-8.2,0l-13.477,13.359-5.859,5.859-7.618-7.5a5.8,5.8,0,0,0-8.2,8.2L329.482,244.4a5.662,5.662,0,0,0,8.2,0l1.758-1.757,21.679-21.68A5.663,5.663,0,0,0,361.122,212.757Z" transform="translate(-183.529 -128.578)" fill="#47568c"/>
      <path id="Path_185" data-name="Path 185" d="M121.122,347.757a5.664,5.664,0,0,0-8.2,0L99.443,361.117l-5.859,5.859-7.618-7.5a5.8,5.8,0,0,0-8.2,8.2L89.482,379.4a5.662,5.662,0,0,0,8.2,0l1.758-1.757,21.679-21.68A5.663,5.663,0,0,0,121.122,347.757Z" transform="translate(-37.279 -210.844)" fill="#fff"/>
      <path id="Path_186" data-name="Path 186" d="M121.122,77.757a5.664,5.664,0,0,0-8.2,0L99.443,91.117l-5.859,5.859-7.618-7.5a5.8,5.8,0,0,0-8.2,8.2L89.482,109.4a5.662,5.662,0,0,0,8.2,0l1.758-1.757,21.679-21.68A5.663,5.663,0,0,0,121.122,77.757Z" transform="translate(-37.279 -46.312)" fill="#fff"/>
      <path id="Path_189" data-name="Path 189" d="M397.685,220.96l-21.679,21.68V226.117l13.477-13.359a5.8,5.8,0,1,1,8.2,8.2Z" transform="translate(-220.092 -128.578)" fill="#2c3b73"/>
    </g>
  </g>
</svg>
