<svg xmlns="http://www.w3.org/2000/svg" width="70" height="70" viewBox="0 0 70 70">
  <g id="job_receive" transform="translate(-1459 2253)">
    <g id="other_erp_system" transform="translate(181 1196)">
      <rect id="Rectangle_950" data-name="Rectangle 950" width="70" height="70" transform="translate(1278 -3449)" fill="none"/>
    </g>
    <g id="file" transform="translate(1464 -2248)">
      <path id="Path_27083" data-name="Path 27083" d="M45,25H20a1,1,0,0,0,0,2H45a1,1,0,0,0,0-2Z" fill="#212121"/>
      <path id="Path_27084" data-name="Path 27084" d="M20,19H30a1,1,0,0,0,0-2H20a1,1,0,0,0,0,2Z" fill="#212121"/>
      <path id="Path_27085" data-name="Path 27085" d="M45,33H20a1,1,0,0,0,0,2H45a1,1,0,0,0,0-2Z" fill="#212121"/>
      <path id="Path_27086" data-name="Path 27086" d="M45,41H20a1,1,0,0,0,0,2H45a1,1,0,0,0,0-2Z" fill="#212121"/>
      <path id="Path_27087" data-name="Path 27087" d="M45,49H20a1,1,0,0,0,0,2H45a1,1,0,0,0,0-2Z" fill="#212121"/>
      <path id="Path_27088" data-name="Path 27088" d="M49,14.586V0H6V55h5v5H54V19.586ZM40,8.414l9,9L50.586,19H40ZM8,53V2H47V12.586L39.414,5H11V53Zm5,5V7H38V21H52V58Z" fill="#f6961e"/>
    </g>
  </g>
</svg>
