<svg xmlns="http://www.w3.org/2000/svg" width="250" height="250" viewBox="0 0 250 250">
  <g id="medicine-banner-icn" transform="translate(-5042 -1819)">
    <g id="medicine-banner-icn-2" data-name="medicine-banner-icn" transform="translate(5062.796 1844)">
      <path id="Path_104" data-name="Path 104" d="M124.328,29.839h-4.248l-.805-.805H53.123l-.805.805H48.069a8.012,8.012,0,0,0-8.012,8.012V53.683a8.012,8.012,0,0,0,8.012,8.012h76.259a8.012,8.012,0,0,0,8.012-8.012V37.851A8.011,8.011,0,0,0,124.328,29.839Z" transform="translate(-20.02 -17.693)" fill="#2571a0"/>
      <path id="Path_105" data-name="Path 105" d="M48.224,53.683V37.851a8.011,8.011,0,0,1,8.012-8.012h4.248v-.805H52.318v.805H48.069a8.012,8.012,0,0,0-8.012,8.012V53.683a8.012,8.012,0,0,0,8.012,8.012h8.167A8.012,8.012,0,0,1,48.224,53.683Z" transform="translate(-20.02 -17.693)" fill="#196084"/>
      <rect id="Rectangle_119" data-name="Rectangle 119" width="67.762" height="19.751" transform="translate(32.299 42.793)" fill="#bababa"/>
      <rect id="Rectangle_120" data-name="Rectangle 120" width="67.762" height="9.875" transform="translate(32.299 52.668)" fill="#989da0"/>
      <path id="Path_106" data-name="Path 106" d="M125.154,268.438a25.891,25.891,0,0,1-25.891,25.891H33.095A25.891,25.891,0,0,1,7.2,268.438V180.7A25.891,25.891,0,0,1,33.095,154.8H99.263A25.891,25.891,0,0,1,125.153,180.7v87.743Z" transform="translate(0 -94.334)" fill="#fff"/>
      <path id="Path_107" data-name="Path 107" d="M15.259,268.438V180.7A25.891,25.891,0,0,1,41.15,154.8H33.095A25.891,25.891,0,0,0,7.2,180.7v87.743a25.891,25.891,0,0,0,25.891,25.891H41.15A25.891,25.891,0,0,1,15.259,268.438Z" transform="translate(0 -94.334)" fill="#d6d4d4"/>
      <path id="Path_108" data-name="Path 108" d="M40.058,71.871v7.916A8.012,8.012,0,0,0,48.07,87.8h76.259a8.012,8.012,0,0,0,8.012-8.012V71.871Z" transform="translate(-20.02 -43.796)" fill="#4a94cc"/>
      <path id="Path_109" data-name="Path 109" d="M48.225,79.787V71.871H40.058v7.916A8.012,8.012,0,0,0,48.07,87.8h8.167A8.012,8.012,0,0,1,48.225,79.787Z" transform="translate(-20.02 -43.796)" fill="#2571a0"/>
      <g id="Group_35" data-name="Group 35" transform="translate(153.063 151.488)">
        <circle id="Ellipse_9" data-name="Ellipse 9" cx="24.254" cy="24.254" r="24.254" transform="translate(0.005)" fill="#ffa92c"/>
        <path id="Path_110" data-name="Path 110" d="M383.857,429.257a24.256,24.256,0,0,0,33.134,8.878l-24.255-42.011A24.255,24.255,0,0,0,383.857,429.257Z" transform="translate(-380.603 -392.876)" fill="#ffa92c"/>
      </g>
      <g id="Group_36" data-name="Group 36" transform="translate(125.153 135.246)">
        <path id="Path_111" data-name="Path 111" d="M323.109,410.98a13.954,13.954,0,0,1-13.954-13.954V360.185a13.955,13.955,0,1,1,27.909,0v36.841A13.954,13.954,0,0,1,323.109,410.98Z" transform="translate(-309.155 -346.23)" fill="#ea473b"/>
        <path id="Path_112" data-name="Path 112" d="M309.155,429.11v18.42a13.955,13.955,0,0,0,27.909,0V429.11Z" transform="translate(-309.155 -396.735)" fill="#ea473b"/>
      </g>
      <circle id="Ellipse_10" data-name="Ellipse 10" cx="24.254" cy="24.254" r="24.254" transform="translate(153.068 151.488)" fill="#fff"/>
      <path id="Path_113" data-name="Path 113" d="M391.839,424.159a24.272,24.272,0,0,1,16.969-36.048c-20.1-3.387-35.3,18.257-25.023,36.048a24.264,24.264,0,0,0,25.044,11.793A24.208,24.208,0,0,1,391.839,424.159Z" transform="translate(-227.468 -236.29)" fill="#fff"/>
      <path id="Path_114" data-name="Path 114" d="M383.857,429.257a24.256,24.256,0,0,0,33.134,8.878l-24.255-42.011A24.255,24.255,0,0,0,383.857,429.257Z" transform="translate(-227.54 -241.388)" fill="#bababa"/>
      <path id="Path_115" data-name="Path 115" d="M392.267,437.844a24.39,24.39,0,0,0,16.659,3.205C389.858,437.835,382,414.59,395.286,400.5l-2.525-4.374A24.272,24.272,0,0,0,392.267,437.844Z" transform="translate(-227.567 -241.388)" fill="#bababa"/>
      <path id="Path_116" data-name="Path 116" d="M337.064,379.41V360.185a13.955,13.955,0,0,0-27.909,0V379.41Z" transform="translate(-184.001 -210.984)" fill="#8dd83d"/>
      <path id="Path_117" data-name="Path 117" d="M327.137,346.823a13.958,13.958,0,0,0-17.982,13.362V379.41h8.055V360.185A13.959,13.959,0,0,1,327.137,346.823Z" transform="translate(-184.001 -210.984)" fill="#5ccc2e"/>
      <path id="Path_118" data-name="Path 118" d="M135.171,303.544a8.528,8.528,0,0,1-8.529,8.529H61.523a8.529,8.529,0,0,1-8.529-8.529v-59.1a8.528,8.528,0,0,1,8.529-8.529h65.12a8.528,8.528,0,0,1,8.529,8.529v59.1Z" transform="translate(-27.903 -143.76)" fill="#2571a0"/>
      <path id="Path_119" data-name="Path 119" d="M61.049,303.544v-59.1a8.528,8.528,0,0,1,8.529-8.529H61.523a8.528,8.528,0,0,0-8.529,8.529v59.1a8.528,8.528,0,0,0,8.529,8.529h8.055A8.528,8.528,0,0,1,61.049,303.544Z" transform="translate(-27.903 -143.76)" fill="#4a94cc"/>
      <g id="Group_37" data-name="Group 37" transform="translate(32.297)">
        <path id="Path_120" data-name="Path 120" d="M140.567,293.422h-8.723V284.7a5.71,5.71,0,0,0-5.711-5.709h-2.22a5.71,5.71,0,0,0-5.71,5.709v8.724h-8.723a5.71,5.71,0,0,0-5.711,5.71v2.22a5.71,5.71,0,0,0,5.711,5.71H118.2v8.724a5.71,5.71,0,0,0,5.71,5.71h2.22a5.711,5.711,0,0,0,5.711-5.71v-8.724h8.723a5.709,5.709,0,0,0,5.71-5.71v-2.22A5.71,5.71,0,0,0,140.567,293.422Z" transform="translate(-91.142 -170.009)" fill="#fff"/>
        <path id="Path_121" data-name="Path 121" d="M131.2,0H79.455a8.011,8.011,0,0,0-8.012,8.012v4.135h67.763V8.012A8.011,8.011,0,0,0,131.2,0Z" transform="translate(-71.443)" fill="#fff"/>
      </g>
      <g id="Group_38" data-name="Group 38" transform="translate(32.297)">
        <path id="Path_122" data-name="Path 122" d="M87.4,0H79.455a8.011,8.011,0,0,0-8.012,8.012v4.135h7.946V8.012A8.011,8.011,0,0,1,87.4,0Z" transform="translate(-71.443)" fill="#d6d4d4"/>
        <path id="Path_123" data-name="Path 123" d="M116.327,323.335a5.71,5.71,0,0,1-5.711-5.71v-1.687h-1.136a5.71,5.71,0,0,0-5.711,5.71v2.22a5.71,5.71,0,0,0,5.711,5.71H118.2V338.3a5.71,5.71,0,0,0,5.71,5.71h2.22a5.711,5.711,0,0,0,5.711-5.71v-.532h-1.084a5.71,5.71,0,0,1-5.71-5.71v-3.891a4.833,4.833,0,0,0-4.833-4.833h-3.89Z" transform="translate(-91.142 -192.525)" fill="#d6d4d4"/>
      </g>
      <path id="Path_124" data-name="Path 124" d="M309.155,429.11v18.42a13.955,13.955,0,0,0,27.909,0V429.11Z" transform="translate(-184.001 -261.489)" fill="#4a94cc"/>
      <path id="Path_125" data-name="Path 125" d="M317.21,447.53V429.11h-8.055v18.42a13.958,13.958,0,0,0,17.982,13.362A13.958,13.958,0,0,1,317.21,447.53Z" transform="translate(-184.001 -261.489)" fill="#2571a0"/>
    </g>
    <rect id="Rectangle_125" data-name="Rectangle 125" width="250" height="250" transform="translate(5042 1819)" fill="none"/>
  </g>
</svg>
