<svg width="150" height="150" viewBox="0 0 150 150" fill="none" xmlns="http://www.w3.org/2000/svg">
<path d="M122.068 86.9501H74.8823L67.9754 93.857H81.1882V135.91H49.0043C39.2049 135.91 30.9748 129.163 28.6529 120.077C28.4032 120.083 28.1535 120.095 27.9021 120.095C25.7407 120.095 23.5811 119.885 21.4518 119.469C23.647 132.696 35.162 142.817 49.0025 142.817H122.066C137.468 142.817 150 130.287 150 114.884C150 99.4816 137.47 86.9501 122.068 86.9501ZM115.703 135.559H92.5748C90.9395 135.559 89.6144 134.234 89.6144 132.598C89.6144 130.963 90.9395 129.638 92.5748 129.638H115.703C117.338 129.638 118.663 130.963 118.663 132.598C118.663 134.234 117.338 135.559 115.703 135.559ZM127.503 135.559H126.355C124.719 135.559 123.394 134.234 123.394 132.598C123.394 130.963 124.719 129.638 126.355 129.638H127.503C129.139 129.638 130.464 130.963 130.464 132.598C130.464 134.234 129.139 135.559 127.503 135.559ZM99.3176 15.3367C94.0621 10.0794 87.0464 7.18505 79.5653 7.18505C72.0842 7.18505 65.0704 10.0794 59.8131 15.3367L8.14985 66.9999C2.89436 72.2554 0 79.2693 0 86.7504C0 94.2315 2.89436 101.245 8.15163 106.503C13.5979 111.949 20.7491 114.67 27.9039 114.67C35.0568 114.67 42.2116 111.947 47.6561 106.503L99.3194 54.8394C104.577 49.5821 107.471 42.5682 107.471 35.0871C107.471 27.606 104.575 20.5922 99.3176 15.3367ZM42.7715 101.618C34.5718 109.816 21.2324 109.816 13.0362 101.618C9.08432 97.6662 6.90686 92.3857 6.90686 86.7504C6.90686 81.1151 9.08432 75.8346 13.0362 71.8827L35.7933 49.1256L65.5287 78.8609L42.7715 101.618ZM89.6858 54.2063L73.3326 70.5595C72.7548 71.1373 71.9969 71.4262 71.2389 71.4262C70.481 71.4262 69.7231 71.1373 69.1453 70.5595C67.9897 69.4039 67.9897 67.5296 69.1453 66.374L85.5003 50.0208C86.6559 48.8652 88.5302 48.8652 89.6858 50.0208C90.8414 51.1764 90.8414 53.0507 89.6858 54.2063ZM98.03 45.8621L97.2186 46.6735C96.6408 47.2513 95.8829 47.5402 95.125 47.5402C94.367 47.5402 93.6109 47.2513 93.0313 46.6735C91.8757 45.5179 91.8757 43.6436 93.0313 42.488L93.8427 41.6766C94.9983 40.521 96.8726 40.521 98.0282 41.6766C99.1856 42.8322 99.1856 44.7065 98.03 45.8621Z" fill="url(#paint0_linear)"/>
<defs>
<linearGradient id="paint0_linear" x1="75" y1="7.18505" x2="75" y2="142.817" gradientUnits="userSpaceOnUse">
<stop stop-color="#FFB150"/>
<stop offset="0.703125" stop-color="#FF9A1C"/>
<stop offset="1" stop-color="#F78900"/>
</linearGradient>
</defs>
</svg>
