<svg xmlns="http://www.w3.org/2000/svg" width="70" height="70" viewBox="0 0 70 70">
  <g id="perform_service" transform="translate(-1750 2253)">
    <g id="other_erp_system" transform="translate(472 1196)">
      <rect id="Rectangle_950" data-name="Rectangle 950" width="70" height="70" transform="translate(1278 -3449)" fill="none"/>
    </g>
    <g id="settings" transform="translate(1755 -2248)">
      <path id="Path_27100" data-name="Path 27100" d="M19,45a4,4,0,1,0-4-4A4,4,0,0,0,19,45Zm0-6a2,2,0,1,1-2,2A2,2,0,0,1,19,39Z" fill="#212121"/>
      <path id="Path_27101" data-name="Path 27101" d="M44,12a4,4,0,1,0,4,4A4,4,0,0,0,44,12Zm0,6a2,2,0,1,1,2-2A2,2,0,0,1,44,18Z" fill="#212121"/>
      <path id="Path_27102" data-name="Path 27102" d="M19,49a8,8,0,1,0-8-8A8.009,8.009,0,0,0,19,49Zm0-14a6,6,0,1,1-6,6A6.006,6.006,0,0,1,19,35Z" fill="#212121"/>
      <path id="Path_27103" data-name="Path 27103" d="M59.187,36.913q.18-.76.32-1.534c.005-.027.012-.053.017-.08,0-.006,0-.012,0-.018A29.869,29.869,0,0,0,57.649,18.36c-.006-.016-.006-.034-.013-.05a29.905,29.905,0,0,0-4.643-7.551,30.27,30.27,0,0,0-3.686-3.695,29.877,29.877,0,0,0-7.617-4.7.374.374,0,0,0-.048-.012A29.87,29.87,0,0,0,24.9.442h-.008l-.085.017C24.4.53,24,.607,23.6.694L23.535.71A29.72,29.72,0,0,0,18.9,2.139c-.137.055-.276.106-.412.163-.224.093-.443.194-.664.292s-.432.191-.646.292c-.174.083-.346.17-.518.256l-.144.071c-.013.006-.028.006-.042.013-.06.03-.117.064-.177.1-.14.072-.278.147-.417.221-.123.066-.245.133-.367.2-.142.079-.286.154-.427.235-.167.1-.33.2-.495.3-.086.052-.171.1-.256.156q-.522.319-1.031.661c-.035.023-.07.046-.1.07-.178.12-.356.239-.531.363-.023.016-.046.034-.069.051q-.56.4-1.1.824l-.035.026s0,.005-.006.007a30.06,30.06,0,0,0-4.518,4.387.617.617,0,0,0-.042.07A29.924,29.924,0,0,0,1.268,38.618c0,.007,0,.015,0,.022.01.032.022.062.031.094.166.544.344,1.083.54,1.613.069.189.148.373.221.56.121.31.243.619.374.923s.276.62.42.927c.068.143.135.286.2.427A29.854,29.854,0,0,0,16.826,56.946c.134.066.27.13.405.194.313.147.627.292.946.428.29.125.584.24.879.356.2.079.4.164.6.238.525.193,1.059.37,1.6.534.035.011.068.024.1.035.012,0,.025,0,.037.005A29.9,29.9,0,0,0,43.852,56.6c.027-.011.055-.017.082-.031.073-.038.141-.082.214-.12.243-.131.481-.269.72-.406.224-.128.451-.252.671-.386q.633-.384,1.245-.8c.175-.118.343-.245.515-.367.272-.193.543-.386.808-.588.149-.114.295-.231.442-.347q.442-.348.871-.712.16-.136.318-.276.522-.456,1.021-.937c.039-.038.079-.074.118-.113.482-.468.952-.949,1.4-1.448.015-.015.037-.021.051-.038a29.853,29.853,0,0,0,5.285-8.31c.047-.11.089-.222.134-.332.108-.262.218-.522.319-.788,0-.01,0-.021.005-.031a29.74,29.74,0,0,0,1.091-3.552C59.172,36.982,59.179,36.947,59.187,36.913ZM49.04,50.505c-.25.233-.507.459-.766.683-.1.085-.195.172-.295.256-.2.172-.412.337-.621.5-.16.127-.318.255-.481.378s-.323.238-.486.356-.3.219-.458.326a4.718,4.718,0,0,0-3.887-5.683L41,47.161V45.384l.994-.19a4.715,4.715,0,0,0,2.912-7.419l-.626-.853,1.257-1.258,1.281.869a4.715,4.715,0,0,0,7.274-3.014L54.384,32h1.777l.161,1.046a4.629,4.629,0,0,0,1.137,2.414,27.484,27.484,0,0,1-.983,3.613,6.491,6.491,0,0,0-6.234,10.235c-.355.373-.717.739-1.093,1.092C49.113,50.435,49.077,50.471,49.04,50.505Zm6.286-8.6A28.342,28.342,0,0,1,51.61,47.76,4.5,4.5,0,0,1,55.5,41c.076,0,.151,0,.226.006-.113.262-.225.524-.345.782C55.363,41.827,55.344,41.865,55.326,41.9ZM44,28A12,12,0,0,1,41.184,4.338a28.049,28.049,0,0,1,5.47,3.169l.1.073c.275.206.542.42.809.636.086.069.175.136.26.206.2.166.394.339.589.51.142.124.287.244.427.372.074.068.145.14.219.208q.762.709,1.47,1.472c.055.059.112.115.167.175.132.145.258.3.387.445.166.19.335.377.5.572.073.088.142.18.214.27.213.264.425.528.628.8.028.037.054.076.082.114a28.021,28.021,0,0,1,3.162,5.46A12.052,12.052,0,0,1,44,28ZM23.228,2.834a3.979,3.979,0,0,0,3.14,4.717L27,7.672V8.758l-.667.1a3.971,3.971,0,0,0-2.684,6.152l.361.534-.768.767-.177-.13a3.971,3.971,0,0,0-6.274,2.6L16.757,19H15.672l-.122-.632A3.971,3.971,0,0,0,9.3,15.914l-.544.4-.768-.766.361-.534a3.9,3.9,0,0,0,.509-3.342c.1-.115.2-.232.3-.345.255-.285.518-.562.784-.835s.557-.559.843-.83c.133-.125.269-.247.4-.369a4.988,4.988,0,1,0,8-5.119q.918-.384,1.865-.7l.194-.066C21.9,3.193,22.561,3,23.228,2.834ZM13.01,7.772c.081-.062.158-.127.24-.188.4-.3.817-.584,1.235-.864.2-.135.4-.275.606-.4l.078-.05c.423-.265.858-.509,1.294-.75.191-.106.378-.22.571-.321A3,3,0,1,1,13,8C13,7.925,13,7.849,13.01,7.772Zm.107,18.344c.029-.009.059,0,.088-.017s.059-.042.092-.059A16.011,16.011,0,0,1,33.646,47.449c-.009.017-.025.028-.033.046s-.007.046-.015.068a15.893,15.893,0,0,1-11.881,9.186l-.008,0c-.493-.152-.977-.322-1.458-.5-.225-.083-.446-.175-.668-.264s-.459-.186-.686-.283c-.3-.129-.593-.262-.885-.4-.107-.051-.213-.1-.32-.156A28.184,28.184,0,0,1,4.853,42.3c-.051-.1-.1-.208-.152-.313-.14-.293-.273-.59-.4-.889-.1-.227-.191-.456-.283-.686s-.18-.442-.263-.666c-.178-.482-.348-.968-.5-1.462,0,0,0,0,0-.005A15.891,15.891,0,0,1,13.117,26.116ZM25.722,57.673a17.823,17.823,0,0,0,9.3-8.458l1.571.7A.985.985,0,0,0,37,50a1,1,0,0,0,.407-1.914l-1.564-.695A18.124,18.124,0,0,0,37,41a17.911,17.911,0,0,0-.9-5.579l1.258-.489a1,1,0,1,0-.724-1.863l-1.267.492A18.1,18.1,0,0,0,27.206,25l.708-1.593a1,1,0,0,0-1.828-.812l-.709,1.595A17.869,17.869,0,0,0,19,23a18.117,18.117,0,0,0-5.581.891l-.487-1.253a1,1,0,0,0-1.864.725l.484,1.244a17.828,17.828,0,0,0-9.225,9.672A28.1,28.1,0,0,1,2,30,27.815,27.815,0,0,1,5.767,16a.961.961,0,0,0,.225.377L7.95,18.334a1,1,0,0,0,1.3.1l1.236-.906a1.972,1.972,0,0,1,3.1,1.219l.278,1.443a1,1,0,0,0,.982.81h2.769a1,1,0,0,0,.988-.848l.164-1.065a1.972,1.972,0,0,1,3.115-1.29l.869.637a1,1,0,0,0,1.3-.1l1.958-1.957a1,1,0,0,0,.121-1.268L25.3,13.891a1.971,1.971,0,0,1,1.332-3.055L28.15,10.6A1,1,0,0,0,29,9.615V6.845a1,1,0,0,0-.812-.982l-1.443-.277A1.934,1.934,0,0,1,25.282,4.37a1.936,1.936,0,0,1,.244-1.885l.1-.142a28.022,28.022,0,0,1,12.634.9,13.963,13.963,0,0,0-3.419,2.185L34.1,4.686A1,1,0,0,0,32.687,6.1l.752.752A14,14,0,0,0,30.044,15H29a1,1,0,0,0,0,2h1.051a13.919,13.919,0,0,0,3.381,8.154l-.745.745A1,1,0,1,0,34.1,27.312l.745-.745A13.921,13.921,0,0,0,43,29.948V31a1,1,0,0,0,2,0V29.956a14,14,0,0,0,8.147-3.4l.752.752A1,1,0,0,0,55.313,25.9l-.745-.745a14,14,0,0,0,2.186-3.419A27.909,27.909,0,0,1,58,30c0,.258-.013.513-.02.77a.992.992,0,0,0-.961-.77H53.558a1,1,0,0,0-.982.812l-.448,2.331a2.714,2.714,0,0,1-4.188,1.734l-1.965-1.332a1,1,0,0,0-1.268.121L42.26,36.114a1,1,0,0,0-.1,1.3l1.133,1.545a2.715,2.715,0,0,1-1.676,4.271l-1.805.347a1,1,0,0,0-.812.982V48.02a1,1,0,0,0,.848.988l1.894.291A2.715,2.715,0,0,1,43.577,53.5l-1.025,1.513a27.966,27.966,0,0,1-16.83,2.655Z" fill="#08B3EC"/>
    </g>
  </g>
</svg>
