<svg width="150" height="150" viewBox="0 0 150 150" fill="none" xmlns="http://www.w3.org/2000/svg">
<path d="M111.298 55.861C108.963 64.7897 103.513 66.7565 100.606 67.1511C98.8144 70.7319 94.8775 78.05 90.9391 81.7269C89.3648 83.1962 87.3192 84.4362 84.859 85.4127C81.718 86.659 78.4007 87.291 75.0004 87.291C71.6 87.291 68.2827 86.659 65.1418 85.4127C62.6823 84.4369 60.6359 83.1968 59.0617 81.7269C55.1226 78.0507 51.1856 70.7319 49.3945 67.1511C46.4876 66.7565 41.0381 64.7904 38.7029 55.861C37.4539 51.0861 37.7737 47.1937 39.654 44.2916C40.485 43.009 41.4924 42.1354 42.4305 41.5439C42.4333 40.5907 42.4731 39.3973 42.5836 38.0399C40.8947 35.6929 38.5985 30.6292 41.4423 22.4326C44.4481 13.7674 51.244 12.4293 54.5242 12.3133C55.6332 10.2518 57.7283 7.32497 61.5328 4.63421C65.756 1.64561 71.2706 0 77.0605 0C84.1851 0 91.3543 2.50754 97.7926 7.25155C108.231 14.943 107.337 32.0044 107.081 35.1021C107.46 37.6988 107.565 39.9511 107.57 41.5432C108.508 42.1347 109.515 43.0083 110.346 44.2909C112.226 47.1937 112.546 51.0854 111.298 55.861ZM141.826 122.351V146.569C141.826 148.464 140.29 150 138.395 150H11.6051C9.71039 150 8.17389 148.464 8.17389 146.569V122.351C8.17389 112.429 14.1264 103.637 23.3385 99.9515L53.3377 87.9518C54.201 87.6073 55.1672 87.6259 56.0161 88.0074C56.8643 88.3876 57.5224 89.0965 57.8381 89.9708L65.3799 110.821L66.8732 106.528L64.4974 100.72C64.0651 99.6619 64.1872 98.4576 64.8247 97.5085C65.4623 96.5594 66.5301 95.9898 67.6733 95.9898H82.3274C83.4707 95.9898 84.5392 96.5594 85.176 97.5085C85.8135 98.4576 85.9357 99.6619 85.5034 100.72L83.1276 106.528L84.6208 110.821L92.1627 89.9708C92.4783 89.0965 93.1365 88.3876 93.9846 88.0074C94.8335 87.6266 95.8005 87.608 96.6631 87.9518L126.662 99.9515C135.874 103.637 141.826 112.429 141.826 122.351ZM123.561 124.984C123.561 123.089 122.025 121.552 120.13 121.552H97.0927C95.1979 121.552 93.6614 123.089 93.6614 124.984V135.682C93.6614 137.577 95.1979 139.113 97.0927 139.113H120.13C122.025 139.113 123.561 137.577 123.561 135.682V124.984Z" fill="url(#paint0_linear)"/>
<defs>
<linearGradient id="paint0_linear" x1="75" y1="0" x2="75" y2="150" gradientUnits="userSpaceOnUse">
<stop stop-color="#FFB150"/>
<stop offset="0.703125" stop-color="#FF9A1C"/>
<stop offset="1" stop-color="#F78900"/>
</linearGradient>
</defs>
</svg>
