<svg xmlns="http://www.w3.org/2000/svg" width="250" height="250" viewBox="0 0 250 250">
  <g id="professional-banner-icn" transform="translate(-3494 -1819)">
    <g id="professional-banner-icn-2" data-name="professional-banner-icn" transform="translate(3519 1842)">
      <path id="Path_77" data-name="Path 77" d="M227.871,44.258a32.353,32.353,0,0,1-32.258,32.258H176.258A32.353,32.353,0,0,1,144,44.258h0A32.353,32.353,0,0,1,176.258,12h19.355a32.353,32.353,0,0,1,32.258,32.258Z" transform="translate(-85.935 -4.774)" fill="#00233f"/>
      <rect id="Rectangle_118" data-name="Rectangle 118" width="51.613" height="48.387" transform="translate(74.194 87.871)" fill="#f9bda0"/>
      <path id="Path_79" data-name="Path 79" d="M228.49,70.219c0,32.258-20,61.29-40.645,61.29S147.2,102.477,147.2,70.219,167.2,32.8,187.845,32.8,228.49,37.961,228.49,70.219Z" transform="translate(-87.845 -17.187)" fill="#fcccb9"/>
      <path id="Path_81" data-name="Path 81" d="M241.806,12.71a7.3,7.3,0,0,1-7.419,7.419H223.419A7.3,7.3,0,0,1,216,12.71v-1.29A7.3,7.3,0,0,1,223.419,4h10.968a7.3,7.3,0,0,1,7.419,7.419Z" transform="translate(-128.903)" fill="#00233f"/>
      <path id="Path_82" data-name="Path 82" d="M70.968,292.8,0,319.252v53.871H97.1Z" transform="translate(0 -172.348)" fill="#0c537a"/>
      <path id="Path_83" data-name="Path 83" d="M70.968,292.8,13.226,325.381,0,373.123H97.1Z" transform="translate(0 -172.348)" fill="#00233f"/>
      <path id="Path_84" data-name="Path 84" d="M151.652,283.2,135.2,290.3l11.613,31.613,30.645,45.484V301.91Z" transform="translate(-80.684 -166.619)" fill="#d6d6d6"/>
      <path id="Path_85" data-name="Path 85" d="M169.161,283.2l25.484,18.71L164,321.91Z" transform="translate(-97.871 -166.619)" fill="#fff"/>
      <path id="Path_86" data-name="Path 86" d="M281.329,292.8,352.3,319.252v53.871H255.2Z" transform="translate(-152.297 -172.348)" fill="#0c537a"/>
      <path id="Path_87" data-name="Path 87" d="M281.329,292.8l57.742,32.581L352.3,373.123H255.2Z" transform="translate(-152.297 -172.348)" fill="#00233f"/>
      <path id="Path_88" data-name="Path 88" d="M281.806,283.2l16.452,7.1L286.645,321.91,256,367.394V301.91Z" transform="translate(-152.774 -166.619)" fill="#d6d6d6"/>
      <path id="Path_89" data-name="Path 89" d="M281.484,283.2,256,301.91l30.645,20Z" transform="translate(-152.774 -166.619)" fill="#fff"/>
      <path id="Path_90" data-name="Path 90" d="M226.735,334.116l3.871,5.806L224.8,387.664l6.774,7.419h2.581V329.6Z" transform="translate(-134.155 -194.31)" fill="#0c537a"/>
      <path id="Path_91" data-name="Path 91" d="M255.419,334.116l-3.871,5.806,5.806,47.742-6.774,7.419H248V329.6Z" transform="translate(-148 -194.31)" fill="#00233f"/>
    </g>
    <rect id="Rectangle_122" data-name="Rectangle 122" width="250" height="250" transform="translate(3494 1819)" fill="none"/>
  </g>
</svg>
