<svg xmlns="http://www.w3.org/2000/svg" viewBox="0 0 489.4 489.4" enable-background="new 0 0 489.4 489.4"><path fill="#3C92CA" d="M221 155.3c0 10.1-8.2 18.2-18.2 18.2H27.2c-10.1 0-18.2-8.2-18.2-18.2V29.2C9 19.1 17.2 11 27.2 11h175.5c10.1 0 18.2 8.2 18.2 18.2v126.1h.1z"/><path d="M0 29.2v126.1c0 15 12.2 27.3 27.3 27.3H106v27.3H79.7c-5 0-9.1 4.1-9.1 9.1s4.1 9.1 9.1 9.1h70.6c5 0 9.1-4.1 9.1-9.1s-4.1-9.1-9.1-9.1H124v-27.3h78.7c15 0 27.3-12.2 27.3-27.3V29.2c0-15-12.2-27.3-27.3-27.3H27.2C12.2 1.9 0 14.2 0 29.2zm211.9 0v126.1c0 5-4.1 9.1-9.1 9.1H27.2c-5 0-9.1-4.1-9.1-9.1V29.2c0-5 4.1-9.1 9.1-9.1h175.5c5.1 0 9.2 4.1 9.2 9.1zM462.2 261.4H286.6c-15 0-27.3 12.2-27.3 27.3v126c0 15 12.2 27.3 27.3 27.3h78.7v27.3H339c-5 0-9.1 4.1-9.1 9.1s4.1 9.1 9.1 9.1h70.7c5 0 9.1-4.1 9.1-9.1s-4.1-9.1-9.1-9.1h-26.3V442h78.7c15 0 27.3-12.2 27.3-27.3V288.6c0-15-12.2-27.2-27.2-27.2zm9.1 153.3c0 5-4.1 9.1-9.1 9.1H286.6c-5 0-9.1-4.1-9.1-9.1V288.6c0-5 4.1-9.1 9.1-9.1h175.5c5 0 9.1 4.1 9.1 9.1v126.1h.1zM278.3 101.3h87v95.3c0 1.1.2 2.2.6 3.2l-16.7-16.7c-3.5-3.5-9.3-3.5-12.8 0s-3.5 9.3 0 12.8l31.6 31.6c1.8 1.8 4.1 2.7 6.4 2.7s4.6-.9 6.4-2.7l31.6-31.6c3.5-3.5 3.5-9.3 0-12.8s-9.3-3.5-12.8 0l-16.7 16.7c.4-1 .6-2.1.6-3.2V92.3c0-5-4.1-9.1-9.1-9.1h-96.1c-5 0-9.1 4.1-9.1 9.1.1 5 4.1 9 9.1 9zM105.9 402.4c0 5 4.1 9.1 9.1 9.1h96.1c5 0 9.1-4.1 9.1-9.1s-4.1-9.1-9.1-9.1h-87V298c0-1.1-.2-2.2-.6-3.2l16.7 16.7c1.8 1.8 4.1 2.7 6.4 2.7s4.6-.9 6.4-2.7c3.5-3.5 3.5-9.3 0-12.8l-31.6-31.6c-3.5-3.5-9.3-3.5-12.8 0L77 298.7c-3.5 3.5-3.5 9.3 0 12.8s9.3 3.5 12.8 0l16.7-16.7c-.4 1-.6 2.1-.6 3.2v104.4z"/></svg>